<svg width="18" height="18" viewBox="0 0 18 18" fill="none" xmlns="http://www.w3.org/2000/svg">
<path d="M9.0013 17.3332C4.3988 17.3332 0.667969 13.6023 0.667969 8.99984C0.667969 4.39734 4.3988 0.666504 9.0013 0.666504C13.6038 0.666504 17.3346 4.39734 17.3346 8.99984C17.3346 13.6023 13.6038 17.3332 9.0013 17.3332ZM9.0013 15.6665C10.7694 15.6665 12.4651 14.9641 13.7153 13.7139C14.9656 12.4636 15.668 10.7679 15.668 8.99984C15.668 7.23173 14.9656 5.53604 13.7153 4.28579C12.4651 3.03555 10.7694 2.33317 9.0013 2.33317C7.23319 2.33317 5.5375 3.03555 4.28726 4.28579C3.03701 5.53604 2.33464 7.23173 2.33464 8.99984C2.33464 10.7679 3.03701 12.4636 4.28726 13.7139C5.5375 14.9641 7.23319 15.6665 9.0013 15.6665ZM8.16797 11.4998H9.83464V13.1665H8.16797V11.4998ZM8.16797 4.83317H9.83464V9.83317H8.16797V4.83317Z" fill="#3181F6"/>
</svg>
