<svg width="20" height="20" viewBox="0 0 20 20" fill="none" xmlns="http://www.w3.org/2000/svg">
<path d="M9.49827 0.00291023C7.89327 0.0222852 4.44264 0.286035 2.51264 2.05666C1.07702 3.47916 0.575767 5.58229 0.517017 8.18291C0.468267 10.7742 0.409517 15.6404 5.10014 16.9654V18.9835C5.10014 18.9835 5.07077 19.791 5.60452 19.9567C6.26202 20.1648 6.63639 19.5435 7.26139 18.876L8.42702 17.5579C11.6364 17.8248 14.0945 17.2098 14.3776 17.1185C15.0289 16.9104 18.697 16.4417 19.2964 11.5748C19.9114 6.54854 18.997 3.38166 17.3464 1.94916H17.3364C16.8383 1.49041 14.8364 0.0316602 10.3639 0.0154102C10.3639 0.0154102 10.032 -0.00708977 9.49827 0.00228523V0.00291023ZM9.55327 1.41604C10.0089 1.41291 10.2858 1.43229 10.2858 1.43229C14.0714 1.44229 15.8783 2.58166 16.3045 2.96541C17.6945 4.15666 18.4108 7.01166 17.8864 11.2079C17.3883 15.2767 14.4133 15.5342 13.8626 15.7098C13.6283 15.7848 11.4633 16.3185 8.73577 16.1429C8.73577 16.1429 6.70452 18.5942 6.06952 19.2254C5.96889 19.336 5.85139 19.3685 5.77639 19.3523C5.66889 19.326 5.63639 19.1929 5.64264 19.0104L5.66202 15.661C1.68389 14.561 1.91827 10.4104 1.96077 8.24229C2.00952 6.07416 2.41639 4.30041 3.62764 3.09916C5.25827 1.62479 8.18827 1.42604 9.55202 1.41604H9.55327ZM9.85327 3.58354C9.82053 3.58321 9.78804 3.58936 9.75769 3.60164C9.72734 3.61392 9.69972 3.63209 9.67642 3.6551C9.65312 3.67811 9.63461 3.7055 9.62195 3.73569C9.60928 3.76589 9.60272 3.79829 9.60264 3.83104C9.60264 3.97104 9.71639 4.08166 9.85327 4.08166C10.473 4.06988 11.0888 4.18089 11.6654 4.4083C12.242 4.63571 12.7678 4.97502 13.2126 5.40666C14.1208 6.28854 14.5633 7.47354 14.5801 9.02291C14.5801 9.15979 14.6908 9.27354 14.8308 9.27354V9.26354C14.8967 9.2637 14.9601 9.23778 15.0071 9.19142C15.054 9.14506 15.0807 9.08201 15.0814 9.01604C15.1117 8.28675 14.9935 7.55892 14.7338 6.87676C14.4741 6.19461 14.0784 5.57239 13.5708 5.04791C12.5814 4.08104 11.3276 3.58291 9.85327 3.58291V3.58354ZM6.55889 4.15666C6.38198 4.13081 6.20156 4.16632 6.04764 4.25728H6.03452C5.67718 4.46675 5.35528 4.73149 5.08077 5.04166C4.85264 5.30541 4.72889 5.57229 4.69639 5.82916C4.67702 5.98229 4.69014 6.13541 4.73577 6.28166L4.75202 6.29166C5.00889 7.04666 5.34452 7.77291 5.75452 8.45666C6.28266 9.41726 6.93261 10.3056 7.68827 11.0998L7.71077 11.1323L7.74639 11.1585L7.76889 11.1848L7.79514 11.2073C8.59216 11.9652 9.4827 12.6181 10.4451 13.1504C11.5451 13.7492 12.2126 14.0323 12.6133 14.1498V14.156C12.7308 14.1917 12.8376 14.2079 12.9451 14.2079C13.2866 14.1829 13.6098 14.0443 13.8633 13.8142C14.172 13.5396 14.4338 13.2164 14.6383 12.8573V12.851C14.8301 12.4898 14.7651 12.1479 14.4883 11.9167C13.9338 11.432 13.3342 11.0015 12.6976 10.631C12.2714 10.3998 11.8383 10.5398 11.6626 10.7742L11.2883 11.246C11.0964 11.4804 10.7476 11.4479 10.7476 11.4479L10.7376 11.4542C8.13702 10.7898 7.44327 8.15666 7.44327 8.15666C7.44327 8.15666 7.41077 7.79854 7.65139 7.61604L8.12014 7.23854C8.34452 7.05604 8.50077 6.62354 8.26014 6.19666C7.89227 5.55926 7.46271 4.9595 6.97764 4.40604C6.8716 4.27555 6.72283 4.18678 6.55764 4.15541L6.55889 4.15666ZM10.2858 4.89916C9.95389 4.89916 9.95389 5.40041 10.2889 5.40041C10.7016 5.4071 11.1089 5.49506 11.4875 5.65924C11.8662 5.82343 12.2088 6.06063 12.4958 6.35729C12.7575 6.64604 12.9587 6.9844 13.0873 7.35231C13.2159 7.72022 13.2694 8.11021 13.2445 8.49916C13.2457 8.56498 13.2725 8.62775 13.3194 8.674C13.3662 8.72026 13.4293 8.74634 13.4951 8.74666L13.5051 8.75979C13.5715 8.75929 13.6349 8.73273 13.6818 8.68584C13.7287 8.63894 13.7553 8.57548 13.7558 8.50916C13.7783 7.51604 13.4695 6.68291 12.8639 6.01541C12.2551 5.34791 11.4058 4.97354 10.3214 4.89916H10.2858V4.89916ZM10.6964 6.24666C10.3545 6.23666 10.3414 6.74791 10.6801 6.75791C11.5039 6.80041 11.9039 7.21666 11.9564 8.07291C11.9575 8.13791 11.9841 8.19987 12.0303 8.24555C12.0766 8.29122 12.1389 8.31697 12.2039 8.31729H12.2139C12.2473 8.31585 12.2801 8.30778 12.3104 8.29353C12.3406 8.27928 12.3678 8.25915 12.3902 8.23431C12.4126 8.20946 12.4298 8.18041 12.4408 8.14883C12.4519 8.11726 12.4565 8.0838 12.4545 8.05041C12.3958 6.93416 11.787 6.30541 10.7064 6.24729H10.6964V6.24666Z" fill="#919FB3"/>
</svg>
