<svg width="19" height="18" viewBox="0 0 19 18" fill="none" xmlns="http://www.w3.org/2000/svg">
<path d="M16.3689 2.53826C15.5395 1.70118 14.5518 1.03754 13.4633 0.586005C12.3749 0.134473 11.2074 -0.0959174 10.029 -0.0917411C5.09128 -0.0917411 1.06712 3.93128 1.0626 8.87017C1.0626 10.452 1.47643 11.9909 2.25775 13.3534L0.990234 17.9994L5.74369 16.7534C7.0587 17.469 8.53191 17.8441 10.029 17.8445H10.0336C14.9724 17.8445 18.9955 13.8215 19 8.87809C19.0011 7.69995 18.7691 6.53323 18.3174 5.44515C17.8656 4.35707 17.203 3.36913 16.3677 2.53826H16.3689ZM10.029 16.3271C8.69368 16.3276 7.38287 15.9682 6.23441 15.2869L5.96304 15.1241L3.14308 15.8635L3.89613 13.1126L3.71974 12.8287C2.97326 11.6419 2.57847 10.2677 2.58113 8.86565C2.58113 4.76574 5.9246 1.42113 10.0336 1.42113C11.0124 1.41938 11.982 1.6114 12.8863 1.98613C13.7907 2.36087 14.6119 2.9109 15.3026 3.60451C15.9958 4.29542 16.5453 5.11673 16.9194 6.02107C17.2936 6.92541 17.485 7.89488 17.4826 8.87356C17.4781 12.9882 14.1346 16.3271 10.029 16.3271V16.3271ZM14.1165 10.7483C13.8938 10.6363 12.7936 10.0947 12.5867 10.0178C12.3809 9.94434 12.2305 9.90589 12.0835 10.1298C11.9331 10.3525 11.5035 10.8602 11.3746 11.0061C11.2457 11.1564 11.1122 11.1734 10.8884 11.0626C10.6656 10.9495 9.9431 10.7143 9.0883 9.94886C8.42118 9.35524 7.97456 8.62029 7.84113 8.39754C7.71224 8.17366 7.8287 8.05381 7.94064 7.94187C8.03901 7.84237 8.16338 7.67955 8.27532 7.55065C8.38839 7.42175 8.42571 7.32677 8.4992 7.17752C8.5727 7.026 8.53764 6.8971 8.48224 6.78516C8.42571 6.67323 7.97908 5.56853 7.79025 5.12304C7.60934 4.6832 7.42504 4.74425 7.28709 4.7386C7.15819 4.73069 7.00781 4.73069 6.85743 4.73069C6.74386 4.73351 6.63211 4.75977 6.52918 4.80784C6.42625 4.8559 6.33436 4.92471 6.25929 5.00997C6.0535 5.23385 5.47798 5.77545 5.47798 6.88014C5.47798 7.98483 6.28077 9.04656 6.39384 9.19694C6.50465 9.34733 7.97003 11.6076 10.219 12.58C10.7504 12.8118 11.1688 12.9486 11.4956 13.0526C12.0326 13.2245 12.5177 13.1985 12.9044 13.1431C13.3341 13.0775 14.2284 12.6003 14.4173 12.0768C14.6027 11.5522 14.6027 11.1044 14.5462 11.0106C14.4908 10.9156 14.3404 10.8602 14.1165 10.7483V10.7483Z" fill="#919FB3"/>
</svg>
