<svg width="1038" height="371" viewBox="0 0 1038 371" fill="none" xmlns="http://www.w3.org/2000/svg">
<path fill-rule="evenodd" clip-rule="evenodd" d="M266.968 288.002H331.696V230.582H266.968V156.98H203.284V230.582H83.746L253.396 5.59988H180.838L0.748047 241.022V288.002H201.196V371H236.502L266.968 337.446V288.002ZM638.571 303.434C641.124 299.005 643.53 294.383 645.789 289.568C659.013 261.032 665.625 227.276 665.625 188.3C665.625 149.324 659.013 115.742 645.789 87.5539C632.565 59.0179 614.295 37.4419 590.979 22.8259C568.011 7.86188 541.911 0.379883 512.679 0.379883C483.447 0.379883 457.347 7.86188 434.379 22.8259C411.411 37.4419 393.315 59.0179 380.091 87.5539C366.867 115.742 360.255 149.324 360.255 188.3C360.255 227.276 366.867 261.032 380.091 289.568C383.435 296.695 387.09 303.4 391.057 309.682L443.056 270.765C433.443 250.095 428.637 222.606 428.637 188.3C428.637 145.496 436.119 113.306 451.083 91.7299C466.395 70.1539 486.927 59.3659 512.679 59.3659C538.779 59.3659 559.311 70.1539 574.275 91.7299C589.587 113.306 597.243 145.496 597.243 188.3C597.243 231.104 589.587 263.294 574.275 284.87C567.035 295.309 558.491 303.223 548.644 308.612L550.5 316.5L638.571 303.434ZM972.484 288.002H1037.21V230.582H972.484V156.98H908.8V230.582H789.262L958.912 5.59988H886.354L706.264 241.022V288.002H906.712V300.137L945.672 278.314L972.484 291.737V288.002Z" fill="white"/>
</svg>
