<svg width="24" height="24" viewBox="0 0 24 24" fill="none" xmlns="http://www.w3.org/2000/svg">
<g clip-path="url(#clip0_1139_1132)">
<path d="M19.4437 6.37115C19.0898 6.08601 18.6321 5.97801 18.1882 6.07462C16.1602 6.51609 14.1182 6.73917 12.076 6.74456C12.0512 6.74188 12.026 6.74038 12.0005 6.74038C11.975 6.74038 11.95 6.74188 11.9253 6.74451C9.88823 6.73917 7.85138 6.51735 5.82854 6.07818L5.81232 6.07462C5.36832 5.97806 4.91068 6.08611 4.55683 6.3712C4.20297 6.65634 4 7.08051 4 7.53491V17.2895C4 18.6469 4.59634 19.8674 5.54049 20.7036V23.2968C5.54049 23.6851 5.8553 24 6.24366 24C6.63197 24 6.94683 23.6852 6.94683 23.2968V21.5549C7.44877 21.7455 7.9927 21.8502 8.56064 21.8502H15.4398C16.0082 21.8502 16.5524 21.7453 17.0547 21.5546V23.2969C17.0547 23.6852 17.3695 24.0001 17.7579 24.0001C18.1462 24.0001 18.461 23.6853 18.461 23.2969V20.7028C19.4046 19.8667 20.0005 18.6465 20.0005 17.2896V7.53487C20.0005 7.08046 19.7976 6.65624 19.4437 6.37115ZM7.56633 20.2822C6.31299 19.8647 5.40639 18.6813 5.40639 17.2894V9.93903C6.12966 10.115 6.85008 10.2627 7.56633 10.3826V20.2822ZM7.56633 8.95873C6.85294 8.83222 6.13332 8.67622 5.40639 8.49003V7.53491C5.40639 7.50688 5.41745 7.48382 5.4392 7.46624C5.45551 7.45312 5.47356 7.44651 5.4931 7.44651C5.4991 7.44651 5.50524 7.44712 5.51153 7.44838L5.51363 7.4488C6.1929 7.59665 6.87779 7.72101 7.56633 7.82207V8.95873ZM11.2972 20.4438H8.97257V10.5825C9.75477 10.6737 10.5303 10.7305 11.2972 10.7525V20.4438ZM11.2973 9.35061C10.5287 9.32731 9.75421 9.26736 8.97262 9.1708V7.99504C9.74559 8.07219 10.5213 8.12 11.2973 8.13796V9.35061ZM15.0864 20.4438H12.7036V10.7539C13.5003 10.7323 14.2952 10.6727 15.0864 10.5754V20.4438ZM15.0864 9.16264C14.297 9.26605 13.5032 9.32905 12.7036 9.35169V8.13791C13.499 8.11949 14.2942 8.06971 15.0864 7.98908V9.16264ZM18.5942 17.2894C18.5942 18.6596 17.7158 19.828 16.4927 20.2625V10.362C17.1978 10.2346 17.8989 10.0779 18.5942 9.89037V17.2894ZM18.5942 8.43069C17.896 8.63131 17.1959 8.79988 16.4927 8.93567V7.81363C17.1617 7.71407 17.8271 7.59243 18.4874 7.44876C18.5146 7.4429 18.5396 7.44871 18.5614 7.46629C18.5832 7.48382 18.5942 7.50693 18.5942 7.53491V8.43069Z" fill="#919FB3"/>
<path d="M15.3079 2.05934C15.098 1.9009 15.0532 1.59917 15.2081 1.38659L15.4036 1.11823C15.6323 0.804405 15.5632 0.364532 15.2494 0.135876C14.9355 -0.092826 14.4957 -0.0237325 14.267 0.290094L14.0715 0.558406C13.4676 1.38715 13.6422 2.56394 14.4607 3.18175C14.6549 3.32833 14.7102 3.59814 14.5895 3.80946L14.2249 4.44756C14.0322 4.78469 14.1493 5.21425 14.4865 5.40695C14.5965 5.46986 14.7164 5.49971 14.8347 5.49971C15.0788 5.49971 15.3161 5.3724 15.4459 5.14529L15.8105 4.50723C16.2814 3.68341 16.0654 2.63102 15.3079 2.05934Z" fill="#919FB3"/>
<path d="M9.52271 2.05833C9.31285 1.89989 9.26809 1.59821 9.42296 1.38558L9.61847 1.11723C9.84713 0.803398 9.77808 0.363525 9.46421 0.13487C9.15038 -0.0937389 8.71056 -0.024786 8.48186 0.289135L8.28639 0.557446C7.6825 1.3861 7.85706 2.56294 8.67545 3.18075C8.86965 3.32733 8.92506 3.59714 8.80431 3.80845L8.43967 4.44656C8.24702 4.78368 8.36411 5.21324 8.70128 5.40594C8.81134 5.46885 8.93124 5.49871 9.04951 5.49871C9.29359 5.49871 9.53082 5.3714 9.66066 5.14429L10.0253 4.50618C10.4962 3.68236 10.28 2.63002 9.52271 2.05833Z" fill="#919FB3"/>
</g>
<defs>
<clipPath id="clip0_1139_1132">
<rect width="24" height="24" fill="white"/>
</clipPath>
</defs>
</svg>
