<svg width="24" height="24" viewBox="0 0 24 24" fill="none" xmlns="http://www.w3.org/2000/svg">
<path d="M20.8999 4.17228L20.7676 1.93741C20.744 1.56886 20.4369 1.28537 20.0636 1.30899C19.6951 1.33262 19.4163 1.64446 19.4352 2.013L19.473 2.66976C17.5452 1.22867 15.2064 0.444336 12.7495 0.444336C9.74441 0.444336 6.91892 1.61611 4.79744 3.73759C4.53757 3.99746 4.53757 4.41798 4.79744 4.68257C5.15653 5.04167 5.61012 4.81487 5.74242 4.68257C7.61348 2.81151 10.1035 1.77676 12.7542 1.77676C14.8615 1.77676 16.8648 2.42879 18.5375 3.63837L17.961 3.67617C17.5925 3.69979 17.3137 4.01164 17.3326 4.38018C17.3515 4.73455 17.6492 5.00859 17.9988 5.00859C18.013 5.00859 20.2715 4.87629 20.2715 4.87629C20.64 4.85267 20.9188 4.54083 20.8999 4.17228Z" fill="#919FB3"/>
<path d="M10.184 21.267C5.43074 19.996 2.41625 15.4554 2.88874 10.7116L3.20531 11.1888C3.33289 11.3825 3.73923 11.614 4.12667 11.3778C4.43851 11.1841 4.51884 10.7635 4.31566 10.4564L3.08719 8.58537C2.98797 8.43889 2.83677 8.33494 2.66667 8.29715C2.49185 8.26407 2.31231 8.29715 2.16583 8.39164L0.299498 9.62012C-0.00762074 9.82329 -0.092669 10.2344 0.110502 10.5415C0.313673 10.8486 0.724739 10.9336 1.03186 10.7305L1.58467 10.3667C0.93736 15.8286 4.38181 21.0922 9.83908 22.5522C9.89577 22.5664 10.4864 22.6372 10.6565 22.0797C10.7652 21.73 10.5431 21.3615 10.184 21.267Z" fill="#919FB3"/>
<path d="M23.6166 8.77912C23.5221 8.42475 23.1535 8.21213 22.7992 8.30663C22.4448 8.40113 22.2322 8.76967 22.3267 9.12404C23.5977 13.8773 21.1785 18.7628 16.8316 20.7237L17.0868 20.2087C17.2522 19.8779 17.1199 19.481 16.7891 19.3157C16.4584 19.1503 16.0568 19.2826 15.8961 19.6133L14.8944 21.612C14.7291 21.9427 14.8614 22.3396 15.1921 22.505L17.1907 23.5066C17.2852 23.5539 17.8191 23.672 18.0837 23.209C18.268 22.8877 18.1168 22.4813 17.7861 22.316L17.186 22.0136C22.2416 19.8496 25.0766 14.2411 23.6166 8.77912Z" fill="#919FB3"/>
<path d="M9.67444 14.0854L10.8746 12.8333C11.3423 12.3466 12.0983 11.6568 12.0983 10.6504C12.0983 10.0219 11.6164 8.61865 9.93903 8.61865C8.66331 8.61865 7.81282 9.60143 7.50098 10.0834L8.68693 10.7874C9.0602 10.192 9.45709 9.89438 9.87288 9.89438C10.6808 9.89438 10.6525 10.4519 10.6525 10.674C10.6525 11.2599 9.95321 11.9166 9.56104 12.3183L7.61438 14.3122V15.4131H12.2968V14.0854H9.67444Z" fill="#919FB3"/>
<path d="M17.247 12.54V11.3824H15.8248V12.54H14.8846L17.1336 8.76953H15.5224L13.1553 12.6912V13.8204H15.8248V15.408H17.247V13.8204H17.9983V12.54H17.247Z" fill="#919FB3"/>
<path d="M19.6148 7.91422C19.3881 7.91422 19.1849 8.00399 19.0053 8.18826V7.12988H18.4053V10.0971H19.0053V8.9348C19.0053 8.7647 19.0479 8.42451 19.4542 8.42451C19.6952 8.42451 19.818 8.58988 19.818 8.92062V10.0971H20.4181V8.79305C20.4181 8.36781 20.1535 7.91422 19.6148 7.91422Z" fill="#919FB3"/>
</svg>
