<svg width="24" height="22" viewBox="0 0 24 22" fill="none" xmlns="http://www.w3.org/2000/svg">
<path d="M23.286 0.822754H0.714047C0.319687 0.822754 0 1.14244 0 1.5368V16.8219C0 17.2163 0.319687 17.536 0.714047 17.536H8.56856V19.7494H5.952C5.55764 19.7494 5.23795 20.0691 5.23795 20.4634C5.23795 20.8578 5.55764 21.1775 5.952 21.1775H18.0484C18.4427 21.1775 18.7624 20.8578 18.7624 20.4634C18.7624 20.0691 18.4427 19.7494 18.0484 19.7494H15.4318V17.536H23.286C23.6803 17.536 24 17.2163 24 16.8219V1.5368C24 1.14244 23.6803 0.822754 23.286 0.822754ZM14.0036 19.7494H9.99661V17.536H14.0036V19.7494ZM22.5719 16.1079H1.42809V14.8917H22.5719V16.1079H22.5719ZM22.5719 13.4636H1.42809V2.25085H22.5719V13.4636H22.5719Z" fill="#919FB3"/>
</svg>
