<svg width="24" height="24" viewBox="0 0 24 24" fill="none" xmlns="http://www.w3.org/2000/svg">
<g clip-path="url(#clip0_1139_1194)">
<path d="M21.2499 20H17.0699C16.6559 20 16.3199 19.664 16.3199 19.25C16.3199 18.836 16.6559 18.5 17.0699 18.5H20.7239L22.1789 14.5H1.81991L3.27491 18.5H6.92991C7.34391 18.5 7.67991 18.836 7.67991 19.25C7.67991 19.664 7.34391 20 6.92991 20H2.74991C2.43491 20 2.15291 19.803 2.04491 19.506L0.0449142 14.006C-0.0380858 13.776 -0.00508578 13.52 0.135914 13.319C0.275914 13.119 0.504914 13 0.749914 13H23.2499C23.4949 13 23.7239 13.119 23.8639 13.32C24.0049 13.52 24.0379 13.777 23.9549 14.007L21.9549 19.507C21.8469 19.803 21.5649 20 21.2499 20Z" fill="#919FB3"/>
<path d="M16.2507 24C16.2127 24 16.1747 23.997 16.1357 23.991C15.7267 23.928 15.4457 23.545 15.5087 23.136L16.3757 17.5H7.62367L8.49067 23.136C8.55367 23.546 8.27267 23.928 7.86367 23.991C7.45467 24.058 7.07067 23.774 7.00867 23.364L6.00867 16.864C5.97567 16.648 6.03767 16.427 6.18067 16.261C6.32367 16.095 6.53067 16 6.74967 16H17.2497C17.4687 16 17.6767 16.096 17.8187 16.262C17.9607 16.428 18.0237 16.648 17.9907 16.865L16.9907 23.365C16.9347 23.735 16.6147 24 16.2507 24Z" fill="#919FB3"/>
<path d="M22.4999 14.2497C22.0859 14.2497 21.7499 13.9137 21.7499 13.4997C21.7499 11.5207 20.6919 9.6477 18.9889 8.6107C18.6349 8.3947 18.5229 7.9337 18.7389 7.5797C18.9549 7.2257 19.4159 7.1137 19.7699 7.3297C21.9159 8.6377 23.2489 11.0017 23.2489 13.4997C23.2499 13.9137 22.9139 14.2497 22.4999 14.2497Z" fill="#919FB3"/>
<path d="M18.501 9C19.3294 9 20.001 8.32843 20.001 7.5C20.001 6.67157 19.3294 6 18.501 6C17.6725 6 17.001 6.67157 17.001 7.5C17.001 8.32843 17.6725 9 18.501 9Z" fill="#919FB3"/>
<path d="M12.001 8C9.79497 8 8.00098 6.206 8.00098 4C8.00098 1.794 9.79497 0 12.001 0C14.207 0 16.001 1.794 16.001 4C16.001 6.206 14.207 8 12.001 8ZM12.001 1.5C10.622 1.5 9.50097 2.622 9.50097 4C9.50097 5.378 10.622 6.5 12.001 6.5C13.38 6.5 14.501 5.378 14.501 4C14.501 2.622 13.38 1.5 12.001 1.5Z" fill="#919FB3"/>
<path d="M19.5 14.5C19.086 14.5 18.75 14.164 18.75 13.75C18.75 11.958 17.292 10.5 15.5 10.5H8.5C6.708 10.5 5.25 11.958 5.25 13.75C5.25 14.164 4.914 14.5 4.5 14.5C4.086 14.5 3.75 14.164 3.75 13.75C3.75 11.131 5.881 9 8.5 9H15.5C18.119 9 20.25 11.131 20.25 13.75C20.25 14.164 19.914 14.5 19.5 14.5Z" fill="#919FB3"/>
</g>
<defs>
<clipPath id="clip0_1139_1194">
<rect width="24" height="24" fill="white"/>
</clipPath>
</defs>
</svg>
