<svg width="24" height="24" viewBox="0 0 24 24" fill="none" xmlns="http://www.w3.org/2000/svg">
<g clip-path="url(#clip0_1139_1266)">
<path d="M20.9763 2.84229H3.02367C1.35637 2.84229 0 4.19871 0 5.86596V12.6692C0 14.3365 1.35637 15.6929 3.02367 15.6929H20.9764C22.6436 15.6929 24 14.3365 24 12.6692V5.86596C24 4.19871 22.6436 2.84229 20.9763 2.84229ZM18.6614 14.2755H5.33864V14.0628C5.33864 13.1901 6.04852 12.4802 6.92119 12.4802H17.0788C17.9514 12.4802 18.6613 13.1902 18.6613 14.0628V14.2755H18.6614ZM22.5826 12.6692C22.5826 13.555 21.8621 14.2755 20.9763 14.2755H20.0787V14.0628C20.0787 12.4086 18.7329 11.0628 17.0788 11.0628H6.92119C5.26702 11.0628 3.92128 12.4086 3.92128 14.0628V14.2755H3.02362C2.13787 14.2755 1.41731 13.555 1.41731 12.6692V5.86596C1.41731 4.98021 2.13787 4.25964 3.02362 4.25964H20.9763C21.8621 4.25964 22.5826 4.98021 22.5826 5.86596V12.6692Z" fill="#919FB3"/>
<path d="M20.1251 5.53516H19.2214C18.83 5.53516 18.5127 5.85245 18.5127 6.24382C18.5127 6.63518 18.83 6.95248 19.2214 6.95248H20.1251C20.5165 6.95248 20.8338 6.63518 20.8338 6.24382C20.8339 5.85245 20.5166 5.53516 20.1251 5.53516Z" fill="#919FB3"/>
<path d="M16.7238 5.53516H15.82C15.4286 5.53516 15.1113 5.85245 15.1113 6.24382C15.1113 6.63518 15.4286 6.95248 15.82 6.95248H16.7238C17.1151 6.95248 17.4324 6.63518 17.4324 6.24382C17.4324 5.85245 17.1151 5.53516 16.7238 5.53516Z" fill="#919FB3"/>
<path d="M11.9997 16.4087C11.6083 16.4087 11.291 16.726 11.291 17.1173V20.4491C11.291 20.8405 11.6083 21.1578 11.9997 21.1578C12.391 21.1578 12.7083 20.8405 12.7083 20.4491V17.1173C12.7083 16.726 12.391 16.4087 11.9997 16.4087Z" fill="#919FB3"/>
<path d="M16.1114 19.7405C15.4535 19.7405 14.9183 19.2053 14.9183 18.5474V17.1173C14.9183 16.726 14.601 16.4087 14.2096 16.4087C13.8183 16.4087 13.501 16.726 13.501 17.1173V18.5474C13.501 19.9868 14.672 21.1578 16.1114 21.1578C16.5028 21.1578 16.8201 20.8405 16.8201 20.4492C16.82 20.0578 16.5027 19.7405 16.1114 19.7405Z" fill="#919FB3"/>
<path d="M9.79104 16.4087C9.39968 16.4087 9.08238 16.726 9.08238 17.1173V18.5474C9.08238 19.2053 8.54721 19.7405 7.88932 19.7405C7.49796 19.7405 7.18066 20.0578 7.18066 20.4491C7.18066 20.8405 7.49796 21.1578 7.88932 21.1578C9.32871 21.1578 10.4997 19.9868 10.4997 18.5474V17.1173C10.4997 16.726 10.1824 16.4087 9.79104 16.4087Z" fill="#919FB3"/>
</g>
<defs>
<clipPath id="clip0_1139_1266">
<rect width="24" height="24" fill="white"/>
</clipPath>
</defs>
</svg>
