<svg width="24" height="24" viewBox="0 0 24 24" fill="none" xmlns="http://www.w3.org/2000/svg">
<path d="M9.40311 0.148031C9.0109 0.148031 8.6929 0.46603 8.6929 0.858233V4.54457C8.6929 5.46838 8.10069 6.25611 7.27611 6.54918V0.710202C7.27611 0.317999 6.95816 0 6.56591 0C6.17366 0 5.85571 0.317999 5.85571 0.710202V6.54918C5.03118 6.25616 4.43896 5.46838 4.43896 4.54457V0.858233C4.43896 0.46603 4.12096 0.148031 3.72876 0.148031C3.33655 0.148031 3.01855 0.46603 3.01855 0.858233V4.54457C3.01855 6.25743 4.23885 7.69053 5.85571 8.02039V11.9426C4.82146 12.2494 4.06466 13.208 4.06466 14.3405V21.4987C4.06466 22.8779 5.18671 24 6.56595 24C7.94515 24 9.0672 22.878 9.0672 21.4987V14.3406C9.0672 13.208 8.31036 12.2495 7.27611 11.9426V8.02044C8.89297 7.69058 10.1133 6.25747 10.1133 4.54462V0.858233C10.1133 0.46603 9.79535 0.148031 9.40311 0.148031ZM7.64689 14.3406V21.4987C7.64689 22.0947 7.16202 22.5796 6.566 22.5796H6.56595C5.96994 22.5796 5.48507 22.0948 5.48507 21.4987V14.3406C5.48507 13.7446 5.96994 13.2596 6.566 13.2596C7.16197 13.2596 7.64689 13.7445 7.64689 14.3406Z" fill="#919FB3"/>
<path d="M17.9594 11.9426V8.44236C19.6795 8.06277 20.9827 6.33191 20.9827 4.25999C20.9827 1.91104 19.3079 0 17.2492 0C15.1905 0 13.5156 1.91104 13.5156 4.26004C13.5156 6.33196 14.8188 8.06286 16.539 8.44241V11.9426C15.5047 12.2494 14.7479 13.208 14.7479 14.3405V21.4987C14.7479 22.8779 15.8699 24 17.2492 24C18.6284 24 19.7504 22.878 19.7504 21.4987V14.3406C19.7504 13.208 18.9937 12.2495 17.9594 11.9426ZM14.936 4.26004C14.936 2.69423 15.9737 1.4204 17.2492 1.4204C18.5246 1.4204 19.5623 2.69428 19.5623 4.26004C19.5623 5.82585 18.5246 7.09967 17.2492 7.09967C15.9737 7.09967 14.936 5.82575 14.936 4.26004ZM18.3301 21.4987C18.3301 22.0947 17.8452 22.5796 17.2492 22.5796C16.6531 22.5796 16.1682 22.0948 16.1682 21.4987V14.3406C16.1682 13.7446 16.6531 13.2596 17.2492 13.2596C17.8452 13.2596 18.3301 13.7445 18.3301 14.3406V21.4987Z" fill="#919FB3"/>
</svg>
