<svg width="24" height="20" viewBox="0 0 24 20" fill="none" xmlns="http://www.w3.org/2000/svg">
<path d="M17.6719 0.859375C17.2031 0.859375 6.7965 0.859375 6.32812 0.859375C2.83922 0.859375 0 3.69878 0 7.1875V18.4375C0 18.8258 0.314812 19.1406 0.703125 19.1406C1.09144 19.1406 1.40625 18.8258 1.40625 18.4375V17.7344H4.21875V18.4375C4.21875 18.8258 4.53356 19.1406 4.92188 19.1406C5.31019 19.1406 5.625 18.8258 5.625 18.4375V7.1875C5.625 5.22025 6.79636 3.51916 8.48438 2.73184V5.19906C7.66598 5.48931 7.07812 6.27086 7.07812 7.1875C7.07812 8.35061 8.02439 9.29688 9.1875 9.29688C10.3506 9.29688 11.2969 8.35061 11.2969 7.1875C11.2969 6.27086 10.709 5.48931 9.89062 5.19906V2.31512C10.1204 2.28273 10.3551 2.26562 10.5938 2.26562H13.4062C13.6449 2.26562 13.8796 2.28273 14.1094 2.31512V5.19906C13.291 5.48931 12.7031 6.27086 12.7031 7.1875C12.7031 8.35061 13.6494 9.29688 14.8125 9.29688C15.9756 9.29688 16.9219 8.35061 16.9219 7.1875C16.9219 6.27086 16.334 5.48931 15.5156 5.19906V2.73184C17.2036 3.51911 18.375 5.2202 18.375 7.1875V18.4375C18.375 18.8258 18.6898 19.1406 19.0781 19.1406C19.4664 19.1406 19.7812 18.8258 19.7812 18.4375V17.7344H22.5938V18.4375C22.5938 18.8258 22.9086 19.1406 23.2969 19.1406C23.6852 19.1406 24 18.8258 24 18.4375V7.1875C24 3.69878 21.1609 0.859375 17.6719 0.859375ZM4.21875 16.3281H1.40625V14.9219H4.21875V16.3281ZM4.21875 13.5156H1.40625V12.1094H4.21875V13.5156ZM4.21875 10.7031H1.40625V9.29688H4.21875V10.7031ZM4.21875 7.1875V7.89062H1.40625V7.1875C1.40625 6.94877 1.42369 6.70942 1.45669 6.47969H4.25831C4.23248 6.71064 4.21875 6.94984 4.21875 7.1875ZM4.58339 5.07812H1.8818C2.67314 3.41673 4.36866 2.26562 6.32812 2.26562H6.59175C5.68387 2.99444 4.98098 3.96513 4.58339 5.07812ZM9.1875 7.89062C8.7998 7.89062 8.48438 7.5752 8.48438 7.1875C8.48438 6.7998 8.7998 6.48438 9.1875 6.48438C9.5752 6.48438 9.89062 6.7998 9.89062 7.1875C9.89062 7.5752 9.5752 7.89062 9.1875 7.89062ZM14.8125 7.89062C14.4248 7.89062 14.1094 7.5752 14.1094 7.1875C14.1094 6.7998 14.4248 6.48438 14.8125 6.48438C15.2002 6.48438 15.5156 6.7998 15.5156 7.1875C15.5156 7.5752 15.2002 7.89062 14.8125 7.89062ZM19.4166 5.07812C19.019 3.96513 18.3161 2.99444 17.4083 2.26562H17.6719C19.6313 2.26562 21.3269 3.41673 22.1182 5.07812H19.4166ZM22.5938 16.3281H19.7812V14.9219H22.5938V16.3281ZM22.5938 13.5156H19.7812V12.1094H22.5938V13.5156ZM22.5938 10.7031H19.7812V9.29688H22.5938V10.7031ZM22.5938 7.89062H19.7812V7.1875C19.7812 6.94984 19.7675 6.71533 19.7417 6.48438H22.5433C22.5763 6.71411 22.5938 6.94877 22.5938 7.1875V7.89062Z" fill="#919FB3"/>
</svg>
