<svg width="24" height="24" viewBox="0 0 24 24" fill="none" xmlns="http://www.w3.org/2000/svg">
<path d="M20.9062 1.875H18.75V0.75C18.75 0.335812 18.4142 0 18 0C17.5858 0 17.25 0.335812 17.25 0.75V1.875H6.75V0.75C6.75 0.335812 6.41423 0 6 0C5.58577 0 5.25 0.335812 5.25 0.75V1.875H3.09375C1.38783 1.875 0 3.26283 0 4.96875V20.9062C0 22.6122 1.38783 24 3.09375 24H20.9062C22.6122 24 24 22.6122 24 20.9062V4.96875C24 3.26283 22.6122 1.875 20.9062 1.875ZM3.09375 3.375H5.25V4.125C5.25 4.53919 5.58577 4.875 6 4.875C6.41423 4.875 6.75 4.53919 6.75 4.125V3.375H17.25V4.125C17.25 4.53919 17.5858 4.875 18 4.875C18.4142 4.875 18.75 4.53919 18.75 4.125V3.375H20.9062C21.7851 3.375 22.5 4.08994 22.5 4.96875V6.75H1.5V4.96875C1.5 4.08994 2.21494 3.375 3.09375 3.375ZM20.9062 22.5H3.09375C2.21494 22.5 1.5 21.7851 1.5 20.9062V8.25H22.5V20.9062C22.5 21.7851 21.7851 22.5 20.9062 22.5Z" fill="#919FB3"/>
<path d="M6.85273 14.4377C7.42773 14.5314 7.86836 14.7471 8.17461 15.0846C8.48086 15.4158 8.63398 15.8283 8.63398 16.3221C8.63398 16.7033 8.53398 17.0565 8.33398 17.3815C8.13398 17.7002 7.82773 17.9565 7.41523 18.1502C7.00898 18.344 6.50898 18.4408 5.91523 18.4408C5.45273 18.4408 4.99648 18.3815 4.54648 18.2627C4.10273 18.1377 3.72461 17.9627 3.41211 17.7377L4.00273 16.5752C4.25273 16.7627 4.54023 16.9096 4.86523 17.0158C5.19648 17.1158 5.53398 17.1658 5.87773 17.1658C6.25898 17.1658 6.55898 17.094 6.77773 16.9502C6.99648 16.8002 7.10586 16.5908 7.10586 16.3221C7.10586 15.7846 6.69648 15.5158 5.87773 15.5158H5.18398V14.5127L6.53398 12.9846H3.74023V11.7658H8.33398V12.7502L6.85273 14.4377Z" fill="#919FB3"/>
<path d="M12.4946 14.2127C12.9133 14.2127 13.2946 14.2971 13.6383 14.4658C13.9821 14.6346 14.254 14.8752 14.454 15.1877C14.654 15.4939 14.754 15.8502 14.754 16.2565C14.754 16.694 14.6446 17.0783 14.4258 17.4096C14.2071 17.7408 13.9071 17.9971 13.5258 18.1783C13.1508 18.3533 12.7321 18.4408 12.2696 18.4408C11.3508 18.4408 10.6321 18.1596 10.1133 17.5971C9.59458 17.0346 9.33521 16.2315 9.33521 15.1877C9.33521 14.4439 9.47583 13.8064 9.75708 13.2752C10.0383 12.7439 10.429 12.3408 10.929 12.0658C11.4352 11.7908 12.0196 11.6533 12.6821 11.6533C13.0321 11.6533 13.3665 11.6939 13.6852 11.7752C14.0102 11.8502 14.2852 11.9596 14.5102 12.1033L13.9477 13.2189C13.6227 13.0002 13.2133 12.8908 12.7196 12.8908C12.1633 12.8908 11.7227 13.0533 11.3977 13.3783C11.0727 13.7033 10.8977 14.1752 10.8727 14.7939C11.2602 14.4064 11.8008 14.2127 12.4946 14.2127ZM12.1852 17.3065C12.5102 17.3065 12.7727 17.219 12.9727 17.044C13.179 16.869 13.2821 16.6315 13.2821 16.3315C13.2821 16.0315 13.179 15.794 12.9727 15.6189C12.7727 15.4377 12.504 15.3471 12.1665 15.3471C11.8352 15.3471 11.5633 15.4408 11.3508 15.6283C11.1383 15.8096 11.0321 16.044 11.0321 16.3315C11.0321 16.619 11.1352 16.8533 11.3415 17.0346C11.5477 17.2158 11.829 17.3065 12.1852 17.3065Z" fill="#919FB3"/>
<path d="M17.5544 14.2314C18.4794 14.2314 19.1607 14.4158 19.5982 14.7846C20.0419 15.1533 20.2638 15.6471 20.2638 16.2658C20.2638 16.6658 20.1638 17.0315 19.9638 17.3627C19.7638 17.6877 19.4576 17.9502 19.0451 18.1502C18.6388 18.344 18.1357 18.4408 17.5357 18.4408C17.0732 18.4408 16.6169 18.3815 16.1669 18.2627C15.7232 18.1377 15.3451 17.9627 15.0326 17.7377L15.6326 16.5752C15.8826 16.7627 16.1701 16.9096 16.4951 17.0158C16.8201 17.1158 17.1544 17.1658 17.4982 17.1658C17.8794 17.1658 18.1794 17.0908 18.3982 16.9408C18.6169 16.7908 18.7263 16.5815 18.7263 16.3127C18.7263 16.0315 18.6107 15.819 18.3794 15.6752C18.1544 15.5314 17.7607 15.4596 17.1982 15.4596H15.5201L15.8576 11.7658H19.8607V12.9846H17.1232L17.0201 14.2314H17.5544Z" fill="#919FB3"/>
</svg>
