<svg width="24" height="24" viewBox="0 0 24 24" fill="none" xmlns="http://www.w3.org/2000/svg">
<path d="M23.9978 9.29614C23.9987 9.21838 23.999 9.14056 23.999 9.06271C23.999 7.69092 23.5161 6.38878 22.6313 5.35416C22.6921 5.05918 22.7228 4.75801 22.7228 4.45464C22.7228 1.99887 20.7189 0.000976562 18.2559 0.000976562C15.7929 0.000976562 13.789 1.99887 13.789 4.45464C13.789 4.75806 13.8197 5.05918 13.8805 5.35416C13.5245 5.77041 13.2338 6.23002 13.0132 6.71995C12.9121 6.76538 12.8138 6.81633 12.7186 6.87272C12.179 6.59939 11.5828 6.45666 10.9694 6.45666C9.79424 6.45666 8.6842 6.99698 7.95394 7.89698C7.72683 7.84265 7.4933 7.81528 7.25518 7.81528C6.99858 7.81528 6.74776 7.84692 6.50481 7.90968C5.77501 7.00158 4.66188 6.45671 3.47867 6.45671C2.07163 6.45671 0.772354 7.22137 0.0877958 8.45221C-0.100969 8.79158 0.0211868 9.21969 0.360513 9.40845C0.468747 9.46859 0.58598 9.49723 0.70162 9.49723C0.948603 9.49723 1.18818 9.36688 1.31676 9.13574C1.7534 8.35063 2.58181 7.86295 3.47871 7.86295C4.36226 7.86295 5.18458 8.33976 5.62478 9.10724C5.80993 9.43011 6.21465 9.55264 6.54779 9.38698C6.76848 9.2772 7.00651 9.22156 7.25518 9.22156C7.49082 9.22156 7.71755 9.27177 7.92905 9.37081C8.2582 9.52489 8.65059 9.40278 8.83406 9.08905C9.27646 8.33277 10.0947 7.86299 10.9694 7.86299C11.4679 7.86299 11.9482 8.0106 12.3584 8.28993C12.4194 8.33146 12.4852 8.36183 12.5531 8.38213C12.5265 8.60647 12.5127 8.83363 12.5127 9.06275C12.5127 9.92183 12.6018 10.7919 12.9053 11.6011C13.0369 11.9519 13.1998 12.2852 13.4284 12.5821C13.5219 12.7036 13.9152 13.0693 13.8805 13.2382C13.8197 13.5332 13.789 13.8344 13.789 14.1377C13.789 16.355 15.4226 18.1988 17.5528 18.536V22.5928H12.9365V21.1397H13.124C13.5123 21.1397 13.8272 20.8249 13.8272 20.4366C13.8272 20.0483 13.5123 19.7335 13.124 19.7335H12.9834V16.6397C12.9834 16.2514 12.6686 15.9366 12.2803 15.9366H1.54597C1.15766 15.9366 0.842854 16.2514 0.842854 16.6397V19.7335H0.70223C0.313919 19.7335 -0.000891225 20.0483 -0.000891225 20.4366C-0.000891225 20.8249 0.313919 21.1397 0.70223 21.1397H0.889729V22.5928H0.70223C0.313919 22.5928 -0.000891225 22.9076 -0.000891225 23.2959C-0.000891225 23.6842 0.313919 23.9991 0.70223 23.9991H23.2958C23.6842 23.9991 23.999 23.6842 23.999 23.2959C23.999 22.9076 23.6842 22.5928 23.2958 22.5928H18.959V18.536C21.0891 18.1988 22.7227 16.355 22.7227 14.1377C22.7227 13.8343 22.692 13.5332 22.6312 13.2382C23.1636 12.6157 23.5598 11.8804 23.7831 11.0921C23.9495 10.5049 23.9906 9.902 23.9978 9.29614ZM2.24914 17.3428H11.5772V19.7334H2.24914V17.3428ZM2.29606 21.1397H11.5303V22.5928H2.29606V21.1397ZM22.6018 9.53C22.551 10.654 22.1347 11.7573 21.3552 12.5503C21.1745 12.7342 21.1089 13.0022 21.1843 13.2488C21.2721 13.5359 21.3166 13.8349 21.3166 14.1377C21.3166 15.5771 20.3088 16.7857 18.9591 17.103V10.5265C19.0317 10.4928 19.0999 10.4467 19.1598 10.3869L20.84 8.7066C21.1146 8.43205 21.1146 7.98684 20.84 7.71224C20.5655 7.4377 20.1203 7.4377 19.8457 7.71224L18.9591 8.59883V7.24626C18.9591 6.85795 18.6443 6.54314 18.256 6.54314C17.8677 6.54314 17.5529 6.85795 17.5529 7.24626V11.395L16.8259 10.6681C16.5514 10.3935 16.1062 10.3935 15.8316 10.6681C15.557 10.9426 15.557 11.3878 15.8316 11.6624L17.5118 13.3427C17.525 13.3559 17.5389 13.3679 17.5529 13.3798V17.103C16.2031 16.7857 15.1953 15.5771 15.1953 14.1376C15.1953 13.8349 15.2398 13.5358 15.3276 13.2487C15.403 13.0022 15.3374 12.7341 15.1567 12.5503C14.3586 11.7383 13.9191 10.6655 13.9191 9.52958C13.9191 9.37391 13.9191 9.21833 13.9191 9.06271C13.9191 7.92679 14.3586 6.85397 15.1567 6.042C15.3374 5.85811 15.403 5.59008 15.3276 5.34357C15.2398 5.05646 15.1953 4.7574 15.1953 4.45464C15.1953 2.77427 16.5683 1.40722 18.256 1.40722C19.9436 1.40722 21.3166 2.77427 21.3166 4.45464C21.3166 4.7574 21.2721 5.05646 21.1843 5.34357C21.1089 5.59008 21.1745 5.85811 21.3551 6.04196C22.2452 6.94772 22.6596 8.25219 22.6018 9.53Z" fill="#919FB3"/>
</svg>
