<svg width="24" height="24" viewBox="0 0 24 24" fill="none" xmlns="http://www.w3.org/2000/svg">
<path d="M22.1514 17.5839C21.8305 17.3571 21.3866 17.4334 21.1598 17.7543C21.1568 17.7585 20.8364 18.1861 20.2346 18.4619C19.3796 18.8537 18.3837 18.7577 17.2747 18.1763C17.2307 18.1532 17.1861 18.1302 17.1413 18.1073V5.07266C17.1413 3.06023 18.7786 1.42298 20.791 1.42298C21.184 1.42298 21.5025 1.10442 21.5025 0.711467C21.5025 0.318562 21.1839 0 20.791 0C17.9939 0 15.7183 2.27559 15.7183 5.07266V7.24555H4.58979V5.07266C4.58979 3.06028 6.22703 1.42303 8.23947 1.42303C8.63242 1.42303 8.95098 1.10447 8.95098 0.711514C8.95098 0.318562 8.63242 0 8.23947 0C5.4424 0 3.16681 2.27559 3.16681 5.07266V17.5545C2.76982 17.7092 2.36797 17.8794 1.96104 18.0667C1.60409 18.231 1.44795 18.6535 1.6122 19.0105C1.77654 19.3674 2.19912 19.5236 2.55607 19.3593C8.67775 16.5412 13.5797 17.8459 16.6139 19.4366C17.5768 19.9413 18.423 20.1191 19.1378 20.1191C19.8283 20.1191 20.3963 19.9531 20.8274 19.7555C21.777 19.3202 22.2689 18.6505 22.3218 18.5755C22.5486 18.2546 22.4723 17.8107 22.1514 17.5839ZM15.7183 17.4573C12.9175 16.3306 9.11636 15.677 4.58979 17.0603V13.6845H15.7183V17.4573ZM15.7183 12.2615H4.58979V8.66858H15.7183V12.2615Z" fill="#919FB3"/>
<path d="M22.1524 21.4646C21.8314 21.2379 21.3875 21.3142 21.1607 21.6351C21.1577 21.6392 20.8374 22.0668 20.2355 22.3426C19.3805 22.7345 18.3846 22.6384 17.2757 22.057C13.9585 20.3181 8.60902 18.8874 1.96202 21.9474C1.60507 22.1117 1.44893 22.5343 1.61318 22.8912C1.77752 23.2482 2.20005 23.4043 2.557 23.24C8.67868 20.4219 13.5806 21.7266 16.6149 23.3173C17.5777 23.8221 18.424 23.9999 19.1388 23.9998C19.8293 23.9998 20.3972 23.8338 20.8283 23.6362C21.778 23.2009 22.2698 22.5312 22.3227 22.4563C22.5496 22.1354 22.4733 21.6914 22.1524 21.4646Z" fill="#919FB3"/>
</svg>
