<svg width="24" height="24" viewBox="0 0 24 24" fill="none" xmlns="http://www.w3.org/2000/svg">
<path d="M13.6347 0C8.41574 0 4.16991 4.24584 4.16991 9.4647C4.16991 9.8554 4.4887 10.1721 4.87941 10.1721C5.1135 10.1721 5.33245 10.0563 5.46422 9.86272C5.82642 9.33064 6.42604 9.01297 7.06818 9.01297C7.71042 9.01297 8.31004 9.33059 8.6722 9.86272C8.80391 10.0563 9.02287 10.1721 9.25701 10.1721C9.4911 10.1721 9.71005 10.0563 9.84182 9.86272C10.204 9.33064 10.8036 9.01297 11.4458 9.01297C12.0202 9.01297 12.56 9.26769 12.927 9.70212V14.3579H12.3326C11.9419 14.3579 11.6252 14.6746 11.6252 15.0653C11.6252 15.4559 11.942 15.7727 12.3326 15.7727H12.927V18.5169H6.68676L2.10605 13.9364C1.82982 13.6601 1.38188 13.6601 1.10565 13.9364C0.829367 14.2126 0.829367 14.6606 1.10565 14.9368L5.8935 19.7246C6.02615 19.8573 6.20606 19.9319 6.3937 19.9319H8.98457L7.08965 22.913C6.88007 23.2427 6.97748 23.6799 7.30715 23.8895C7.63687 24.099 8.07403 24.0016 8.28365 23.672L10.661 19.9319H12.9269V23.2925C12.9269 23.6832 13.2436 23.9999 13.6343 23.9999C14.025 23.9999 14.3417 23.6831 14.3417 23.2925V19.9319H16.6076L18.9849 23.672C19.1197 23.884 19.3486 24 19.5826 24C19.7124 24 19.8438 23.9642 19.9614 23.8895C20.2911 23.6799 20.3885 23.2426 20.1789 22.913L18.284 19.9319H20.8748C21.2655 19.9319 21.5822 19.6151 21.5822 19.2245C21.5822 18.8338 21.2655 18.5171 20.8748 18.5171H14.3418V15.7728H14.9367C15.3274 15.7728 15.644 15.4561 15.644 15.0655C15.644 14.6748 15.3273 14.3581 14.9367 14.3581H14.3418V9.70292C14.7086 9.26811 15.2487 9.01311 15.8234 9.01311C16.4656 9.01311 17.0653 9.33073 17.4274 9.86286C17.5592 10.0564 17.7781 10.1722 18.0122 10.1722C18.2463 10.1722 18.4653 10.0564 18.597 9.8629C18.9592 9.33078 19.5588 9.01311 20.201 9.01311C20.8432 9.01311 21.4429 9.33073 21.805 9.86286C21.9368 10.0564 22.1578 10.1722 22.3919 10.1722C22.7826 10.1722 23.0993 9.8555 23.0993 9.46484C23.0994 4.24584 18.8535 0 13.6347 0ZM20.2011 7.59824C19.3877 7.59824 18.6141 7.89247 18.0123 8.41109C17.4105 7.89256 16.6368 7.59824 15.8235 7.59824C15.0616 7.59824 14.3346 7.85647 13.7511 8.31533C13.713 8.309 13.6743 8.30492 13.6344 8.30492C13.5948 8.30492 13.5561 8.30895 13.5182 8.31523C12.9347 7.85638 12.2077 7.59819 11.4459 7.59819C10.6326 7.59819 9.85883 7.89252 9.25705 8.41105C8.65532 7.89252 7.88156 7.59819 7.06823 7.59819C6.60562 7.59819 6.15581 7.69344 5.74322 7.87091C6.48473 4.19282 9.74132 1.41483 13.6347 1.41483C17.5282 1.41483 20.7846 4.19282 21.5261 7.87095C21.1135 7.69349 20.6636 7.59824 20.2011 7.59824Z" fill="#919FB3"/>
</svg>
