<svg width="24" height="24" viewBox="0 0 24 24" fill="none" xmlns="http://www.w3.org/2000/svg">
<g clip-path="url(#clip0_1139_1209)">
<path d="M17.7469 13.6405C16.1321 11.6909 14.0911 10.6172 11.9996 10.6172C9.90818 10.6172 7.8671 11.6909 6.25245 13.6405C4.80101 15.393 3.93457 17.6015 3.93457 19.5484C3.93457 20.4942 4.2237 21.2146 4.79388 21.6896C5.35666 22.1586 6.09968 22.3172 6.92862 22.3171C7.81066 22.3171 8.79007 22.1375 9.75237 21.961C10.5933 21.8067 11.3875 21.661 11.9997 21.661C12.5281 21.661 13.2731 21.7993 14.0616 21.9457C15.9046 22.2879 17.9936 22.6756 19.2003 21.6723C19.7739 21.1954 20.0648 20.4808 20.0648 19.5484C20.0648 17.6015 19.1983 15.393 17.7469 13.6405ZM18.3012 20.591C17.6017 21.1727 15.7811 20.8347 14.3182 20.5631C13.4641 20.4046 12.6574 20.2548 11.9996 20.2548C11.2595 20.2548 10.4042 20.4117 9.49854 20.5778C8.09552 20.8352 6.34943 21.1555 5.69393 20.6093C5.60655 20.5365 5.34068 20.315 5.34068 19.5484C5.34068 17.9431 6.10502 16.023 7.33535 14.5375C8.67809 12.9163 10.3346 12.0234 11.9996 12.0234C13.6646 12.0234 15.321 12.9163 16.6638 14.5375C17.8941 16.023 18.6584 17.9431 18.6584 19.5484C18.6586 20.2939 18.3896 20.5176 18.3012 20.591Z" fill="#919FB3"/>
<path d="M17.9116 3.05417C17.3208 2.18309 16.4748 1.68359 15.5905 1.68359C14.7061 1.68359 13.8602 2.18319 13.2694 3.05417C12.7267 3.85437 12.4277 4.90522 12.4277 6.01315C12.4277 7.12109 12.7266 8.17193 13.2694 8.97214C13.8602 9.84317 14.7062 10.3428 15.5905 10.3428C16.4748 10.3428 17.3208 9.84317 17.9116 8.97214C18.4543 8.17193 18.7532 7.12109 18.7532 6.01315C18.7532 4.90522 18.4544 3.85433 17.9116 3.05417ZM16.7478 8.18281C16.5569 8.46429 16.1527 8.93656 15.5905 8.93656C15.0283 8.93656 14.6241 8.46434 14.4331 8.18281C14.0523 7.62134 13.8339 6.83051 13.8339 6.01315C13.8339 5.19575 14.0524 4.40497 14.4331 3.8435C14.6241 3.56201 15.0283 3.08975 15.5905 3.08975C16.1527 3.08975 16.5569 3.56197 16.7478 3.8435C17.1286 4.40497 17.347 5.1958 17.347 6.01315C17.347 6.83051 17.1286 7.62134 16.7478 8.18281Z" fill="#919FB3"/>
<path d="M10.73 3.05324C10.1391 2.18216 9.29319 1.68262 8.40884 1.68262C7.5245 1.68262 6.6785 2.18221 6.08773 3.05324C5.54502 3.85345 5.24609 4.90429 5.24609 6.01223C5.24609 7.12016 5.54497 8.17101 6.08773 8.97121C6.67855 9.84229 7.5245 10.3419 8.40884 10.3419C9.29319 10.3419 10.1391 9.84229 10.73 8.97121C11.2727 8.17101 11.5716 7.12021 11.5716 6.01223C11.5715 4.90429 11.2727 3.8534 10.73 3.05324ZM9.56609 8.18193C9.37517 8.46341 8.97092 8.93568 8.4088 8.93568C7.84662 8.93568 7.44238 8.46341 7.25145 8.18193C6.87064 7.62046 6.65225 6.82963 6.65225 6.01227C6.65225 5.19487 6.87069 4.40409 7.25145 3.84262C7.44238 3.56113 7.84662 3.08887 8.4088 3.08887C8.97097 3.08887 9.37517 3.56109 9.56609 3.84262C9.94691 4.40409 10.1653 5.19491 10.1653 6.01227C10.1653 6.82963 9.94691 7.62046 9.56609 8.18193Z" fill="#919FB3"/>
<path d="M23.8605 9.85019C23.6223 9.04 23.1118 8.4513 22.4231 8.1926C21.8688 7.98443 21.2432 8.01972 20.6614 8.29202C19.8596 8.66721 19.2042 9.44196 18.8634 10.4176C18.5849 11.2148 18.5502 12.0575 18.7657 12.7905C19.0038 13.6007 19.5144 14.1894 20.2031 14.4481C20.4415 14.5376 20.693 14.5821 20.9486 14.5821C21.2873 14.5821 21.6333 14.5038 21.9649 14.3486C22.7667 13.9735 23.4221 13.1987 23.7628 12.2231V12.2231C24.0413 11.4259 24.076 10.5832 23.8605 9.85019ZM22.4352 11.7594C22.2217 12.3707 21.823 12.8625 21.3688 13.075C21.2018 13.1531 20.9499 13.2264 20.6976 13.1316C20.0888 12.9029 19.852 11.8513 20.1909 10.8813C20.4044 10.27 20.8031 9.77819 21.2573 9.56561C21.368 9.51382 21.5161 9.46418 21.6768 9.46418C21.7585 9.46418 21.8435 9.47702 21.9285 9.50894C22.5373 9.73769 22.7742 10.7893 22.4352 11.7594Z" fill="#919FB3"/>
<path d="M5.13783 10.4175C4.797 9.44189 4.14165 8.66719 3.3399 8.292C2.75804 8.0197 2.13235 7.98445 1.57814 8.19258C0.889364 8.45133 0.378848 9.04003 0.140676 9.85017C-0.0748083 10.5832 -0.0400739 11.4259 0.238411 12.2231V12.2231C0.579286 13.1987 1.2346 13.9734 2.03635 14.3486C2.36804 14.5038 2.71393 14.5821 3.05269 14.5821C3.30825 14.5821 3.55979 14.5375 3.7981 14.448C4.48697 14.1893 4.99744 13.6006 5.23561 12.7905C5.451 12.0575 5.41627 11.2148 5.13783 10.4175ZM3.30357 13.1317C3.05133 13.2264 2.79933 13.1531 2.63236 13.075C2.17819 12.8625 1.77947 12.3707 1.56596 11.7594V11.7594C1.2271 10.7894 1.46386 9.73781 2.07268 9.50906C2.32486 9.41433 2.57691 9.48759 2.74393 9.56569C3.19814 9.77826 3.59682 10.2701 3.81033 10.8813C4.14919 11.8514 3.91238 12.903 3.30357 13.1317Z" fill="#919FB3"/>
</g>
<defs>
<clipPath id="clip0_1139_1209">
<rect width="24" height="24" fill="white"/>
</clipPath>
</defs>
</svg>
