<svg width="24" height="24" viewBox="0 0 24 24" fill="none" xmlns="http://www.w3.org/2000/svg">
<g clip-path="url(#clip0_1139_1155)">
<path d="M14.2235 16.3791C12.998 15.1536 11.004 15.1536 9.7785 16.3791C8.553 17.6046 8.553 19.5986 9.7785 20.8241C10.3912 21.4369 11.1961 21.7432 12.001 21.7432C12.8059 21.7432 13.6108 21.4369 14.2235 20.8241C15.449 19.5986 15.449 17.6046 14.2235 16.3791ZM13.1976 19.7982C12.5378 20.458 11.4642 20.458 10.8044 19.7982C10.1446 19.1384 10.1446 18.0648 10.8044 17.405C11.1344 17.0751 11.5677 16.9102 12.0011 16.9102C12.4344 16.9102 12.8677 17.0751 13.1977 17.405C13.8574 18.0648 13.8574 19.1383 13.1976 19.7982Z" fill="#919FB3"/>
<path d="M19.2633 11.6639C15.2584 7.65892 8.74184 7.65892 4.7369 11.6639C4.60087 11.7999 4.52441 11.9844 4.52441 12.1768C4.52441 12.3691 4.60087 12.5536 4.7369 12.6897L6.95033 14.9031C7.08636 15.0391 7.27086 15.1156 7.46324 15.1156C7.65566 15.1156 7.84016 15.0391 7.97619 14.9031C9.04902 13.8302 10.478 13.2394 12 13.2394C13.522 13.2394 14.951 13.8302 16.0239 14.9031C16.16 15.0391 16.3444 15.1156 16.5369 15.1156C16.7292 15.1156 16.9138 15.0391 17.0498 14.9031L19.2632 12.6897C19.3992 12.5536 19.4757 12.3691 19.4757 12.1768C19.4758 11.9844 19.3993 11.7999 19.2633 11.6639ZM16.5113 13.39C15.2419 12.3526 13.6651 11.7886 12.0001 11.7886C10.3351 11.7886 8.7583 12.3526 7.48892 13.39L6.29661 12.1977C9.57551 9.41476 14.4247 9.41476 17.7036 12.1977L16.5113 13.39Z" fill="#919FB3"/>
<path d="M23.7875 7.13937C20.639 3.99083 16.4528 2.25684 12 2.25684C7.54724 2.25684 3.36102 3.99083 0.212484 7.13942C-0.070828 7.42273 -0.070828 7.88201 0.212484 8.16532L2.42596 10.3788C2.70928 10.6621 3.1686 10.6621 3.45187 10.3788C8.16537 5.6653 15.8348 5.6653 20.5482 10.3788C20.6898 10.5205 20.8755 10.5912 21.0611 10.5912C21.2468 10.5912 21.4324 10.5204 21.574 10.3788L23.7875 8.16532C24.0708 7.88197 24.0708 7.42269 23.7875 7.13937ZM21.0476 8.85345C15.9174 4.24011 8.08278 4.24011 2.95251 8.85345L1.76329 7.66423C4.57016 5.10725 8.17747 3.70766 12 3.70766C15.8226 3.70766 19.4298 5.10725 22.2368 7.66423L21.0476 8.85345Z" fill="#919FB3"/>
</g>
<defs>
<clipPath id="clip0_1139_1155">
<rect width="24" height="24" fill="white"/>
</clipPath>
</defs>
</svg>
