<svg width="24" height="24" viewBox="0 0 24 24" fill="none" xmlns="http://www.w3.org/2000/svg">
<g clip-path="url(#clip0_1139_1252)">
<path d="M18.0301 -0.046875H5.97437C4.25684 -0.046875 2.85938 1.35059 2.85938 3.06812V15.1894C2.85938 16.9071 4.25684 18.3044 5.97437 18.3044H6.25251V21.9051C6.25251 23.0343 7.17115 23.9532 8.30055 23.9532H15.7039C16.8333 23.9532 17.7519 23.0343 17.7519 21.9051V18.3044H18.0301C19.7478 18.3044 21.1451 16.9071 21.1451 15.1894V3.06812C21.1451 1.35059 19.7478 -0.046875 18.0301 -0.046875V-0.046875ZM7.65876 21.9051V18.3044H8.65358V22.5469H8.30055C7.9466 22.5469 7.65876 22.2591 7.65876 21.9051ZM10.0598 22.5469V18.3044H11.9334V22.5469H10.0598ZM16.3459 21.9051C16.3459 22.2591 16.0578 22.5469 15.7041 22.5469H13.3396V18.3044H16.3459V21.9051ZM19.7388 15.1894C19.7388 16.1316 18.9723 16.8981 18.0301 16.8981H5.97437C5.03211 16.8981 4.26563 16.1316 4.26563 15.1894V3.06812C4.26563 2.12586 5.03211 1.35938 5.97437 1.35938H18.0301C18.9723 1.35938 19.7388 2.12586 19.7388 3.06812V15.1894Z" fill="#919FB3"/>
<path d="M17.1819 1.93213H6.82324C6.43506 1.93213 6.12012 2.24689 6.12012 2.63526V6.0077C6.12012 6.39607 6.43506 6.71082 6.82324 6.71082H17.1819C17.5703 6.71082 17.885 6.39607 17.885 6.0077V2.63526C17.885 2.24689 17.5703 1.93213 17.1819 1.93213ZM16.4788 5.30457H7.52637V3.33838H16.4788V5.30457Z" fill="#919FB3"/>
<path d="M9.29109 8.82648C9.29109 8.43024 8.96919 8.10889 8.57221 8.10889C8.17523 8.10889 7.85352 8.43024 7.85352 8.82648C7.85352 9.2229 8.17523 9.54407 8.57221 9.54407C8.96919 9.54407 9.29109 9.2229 9.29109 8.82648Z" fill="#919FB3"/>
<path d="M12.3655 8.82648C12.3655 8.43024 12.0436 8.10889 11.6466 8.10889C11.2496 8.10889 10.9277 8.43024 10.9277 8.82648C10.9277 9.2229 11.2496 9.54407 11.6466 9.54407C12.0436 9.54407 12.3655 9.2229 12.3655 8.82648Z" fill="#919FB3"/>
<path d="M15.4426 8.82648C15.4426 8.43024 15.1207 8.10889 14.7238 8.10889C14.3268 8.10889 14.0049 8.43024 14.0049 8.82648C14.0049 9.2229 14.3268 9.54407 14.7238 9.54407C15.1207 9.54407 15.4426 9.2229 15.4426 8.82648Z" fill="#919FB3"/>
<path d="M9.29109 11.6321C9.29109 11.2357 8.96919 10.9146 8.57221 10.9146C8.17523 10.9146 7.85352 11.2357 7.85352 11.6321C7.85352 12.0284 8.17523 12.3497 8.57221 12.3497C8.96919 12.3497 9.29109 12.0284 9.29109 11.6321Z" fill="#919FB3"/>
<path d="M12.3655 11.6321C12.3655 11.2357 12.0436 10.9146 11.6466 10.9146C11.2496 10.9146 10.9277 11.2357 10.9277 11.6321C10.9277 12.0284 11.2496 12.3497 11.6466 12.3497C12.0436 12.3497 12.3655 12.0284 12.3655 11.6321Z" fill="#919FB3"/>
<path d="M15.4426 11.6321C15.4426 11.2357 15.1207 10.9146 14.7238 10.9146C14.3268 10.9146 14.0049 11.2357 14.0049 11.6321C14.0049 12.0284 14.3268 12.3497 14.7238 12.3497C15.1207 12.3497 15.4426 12.0284 15.4426 11.6321Z" fill="#919FB3"/>
<path d="M9.29109 14.4383C9.29109 14.0421 8.96919 13.7207 8.57221 13.7207C8.17523 13.7207 7.85352 14.0421 7.85352 14.4383C7.85352 14.8347 8.17523 15.1559 8.57221 15.1559C8.96919 15.1559 9.29109 14.8347 9.29109 14.4383Z" fill="#919FB3"/>
<path d="M12.3655 14.4383C12.3655 14.0421 12.0436 13.7207 11.6466 13.7207C11.2496 13.7207 10.9277 14.0421 10.9277 14.4383C10.9277 14.8347 11.2496 15.1559 11.6466 15.1559C12.0436 15.1559 12.3655 14.8347 12.3655 14.4383Z" fill="#919FB3"/>
<path d="M15.4426 14.4383C15.4426 14.0421 15.1207 13.7207 14.7238 13.7207C14.3268 13.7207 14.0049 14.0421 14.0049 14.4383C14.0049 14.8347 14.3268 15.1559 14.7238 15.1559C15.1207 15.1559 15.4426 14.8347 15.4426 14.4383Z" fill="#919FB3"/>
</g>
<defs>
<clipPath id="clip0_1139_1252">
<rect width="24" height="24" fill="white"/>
</clipPath>
</defs>
</svg>
