<svg width="24" height="24" viewBox="0 0 24 24" fill="none" xmlns="http://www.w3.org/2000/svg">
<path d="M23.9996 9.74066C23.9996 9.74048 23.9996 9.74048 23.9996 9.7403C23.9996 9.74011 23.9996 9.73993 23.9996 9.73993C23.9996 4.36926 19.6302 0 14.259 0C13.8706 0 13.5558 0.314758 13.5558 0.703125V9.03754H5.87769C5.53857 6.49933 3.36456 4.51868 0.702759 4.51868C0.314392 4.51868 0 4.83362 0 5.2218C0 5.61017 0.315124 5.92493 0.703491 5.92493C2.81049 5.92493 4.51849 7.62946 4.51849 9.73993V9.74066V9.74103V9.74139C4.51849 13.7276 6.92578 17.1614 10.363 18.6672L9.87231 19.158C9.49878 18.9483 9.06848 18.828 8.61053 18.828C7.18469 18.828 6.02454 19.9882 6.02454 21.414C6.02454 22.84 7.18469 24 8.61053 24C10.0364 24 11.1964 22.84 11.1964 21.414C11.1964 20.9561 11.0762 20.5259 10.8666 20.1524L11.8414 19.1776C12.6147 19.3757 13.4247 19.4813 14.259 19.4813C14.874 19.4813 15.4757 19.4233 16.0596 19.3138L16.8983 20.1524C16.6886 20.5259 16.5683 20.9561 16.5683 21.414C16.5683 22.84 17.7285 24 19.1543 24C20.5801 24 21.7401 22.84 21.7401 21.414C21.7401 19.9882 20.5801 18.828 19.1543 18.828C18.6964 18.828 18.2661 18.9483 17.8925 19.158L17.6184 18.8839C21.3391 17.5126 23.9996 13.9314 23.9996 9.74066ZM8.61053 22.5938C7.95996 22.5938 7.43079 22.0646 7.43079 21.414C7.43079 20.7636 7.95996 20.2343 8.61053 20.2343C9.26093 20.2343 9.7901 20.7636 9.7901 21.414C9.7901 22.0646 9.26093 22.5938 8.61053 22.5938ZM20.3339 21.414C20.3339 22.0646 19.8049 22.5938 19.1543 22.5938C18.5037 22.5938 17.9745 22.0646 17.9745 21.414C17.9745 20.7636 18.5037 20.2343 19.1543 20.2343C19.8049 20.2343 20.3339 20.7636 20.3339 21.414ZM20.6261 4.3678C21.711 5.65155 22.4156 7.26672 22.5639 9.03754H15.9564L20.6261 4.3678ZM19.6317 3.37354L14.9621 8.04309V1.43555C16.7329 1.58405 18.3481 2.28864 19.6317 3.37354ZM14.2582 18.0751C9.89978 18.0751 6.31201 14.7118 5.95404 10.4438H22.5639C22.2057 14.7116 18.6178 18.0751 14.2582 18.0751Z" fill="#919FB3"/>
</svg>
