<svg width="24" height="24" viewBox="0 0 24 24" fill="none" xmlns="http://www.w3.org/2000/svg">
<path d="M20.1303 0H3.86967C1.73592 0 0 1.73592 0 3.86967V20.1303C0 22.2641 1.73592 24 3.86967 24H20.1303C22.2641 24 24 22.2641 24 20.1303V3.86967C24 1.73592 22.2641 0 20.1303 0ZM22.5827 20.1303C22.5827 21.4825 21.4826 22.5827 20.1303 22.5827H3.86967C2.51747 22.5827 1.41731 21.4826 1.41731 20.1303V3.86967C1.41731 2.51747 2.51742 1.41731 3.86967 1.41731H20.1303C21.4825 1.41731 22.5827 2.51742 22.5827 3.86967V20.1303Z" fill="#919FB3"/>
<path d="M12.4959 3.94531H9.10636C7.80384 3.94531 6.74414 5.00502 6.74414 6.30753V19.3462C6.74414 19.7376 7.06144 20.0549 7.4528 20.0549H10.7599C11.1512 20.0549 11.4685 19.7376 11.4685 19.3463V15.3545H12.4959C15.6414 15.3545 18.2004 12.7954 18.2004 9.64986C18.2004 6.50436 15.6414 3.94531 12.4959 3.94531ZM12.4959 13.9371H10.7599C10.3686 13.9371 10.0513 14.2544 10.0513 14.6458V18.6375H8.1615V6.30748C8.1615 5.78647 8.58539 5.36263 9.10636 5.36263H12.4959C14.8599 5.36263 16.7832 7.28586 16.7832 9.64986C16.7832 12.0139 14.8599 13.9371 12.4959 13.9371Z" fill="#919FB3"/>
<path d="M12.4955 7.25195H10.7594C10.3681 7.25195 10.0508 7.56925 10.0508 7.96061V11.3382C10.0508 11.7296 10.3681 12.0469 10.7594 12.0469H12.4955C13.8174 12.0469 14.8929 10.9714 14.8929 9.64942C14.8929 8.32745 13.8174 7.25195 12.4955 7.25195ZM12.4955 10.6296H11.4681V8.66927H12.4955C13.0359 8.66927 13.4756 9.10895 13.4756 9.64942C13.4756 10.1898 13.0359 10.6296 12.4955 10.6296Z" fill="#919FB3"/>
</svg>
