<svg width="18" height="18" viewBox="0 0 18 18" fill="none" xmlns="http://www.w3.org/2000/svg">
<path d="M4.14102 14C4.31318 13.5121 4.63247 13.0896 5.05485 12.7907C5.47723 12.4918 5.98192 12.3313 6.49935 12.3313C7.01678 12.3313 7.52147 12.4918 7.94385 12.7907C8.36623 13.0896 8.68551 13.5121 8.85768 14H17.3327V15.6667H8.85768C8.68551 16.1547 8.36623 16.5772 7.94385 16.8761C7.52147 17.1749 7.01678 17.3354 6.49935 17.3354C5.98192 17.3354 5.47723 17.1749 5.05485 16.8761C4.63247 16.5772 4.31318 16.1547 4.14102 15.6667H0.666016V14H4.14102ZM9.14102 8.16672C9.31318 7.67877 9.63247 7.25624 10.0548 6.95737C10.4772 6.6585 10.9819 6.49801 11.4993 6.49801C12.0168 6.49801 12.5215 6.6585 12.9438 6.95737C13.3662 7.25624 13.6855 7.67877 13.8577 8.16672H17.3327V9.83338H13.8577C13.6855 10.3213 13.3662 10.7439 12.9438 11.0427C12.5215 11.3416 12.0168 11.5021 11.4993 11.5021C10.9819 11.5021 10.4772 11.3416 10.0548 11.0427C9.63247 10.7439 9.31318 10.3213 9.14102 9.83338H0.666016V8.16672H9.14102ZM4.14102 2.33338C4.31318 1.84544 4.63247 1.42291 5.05485 1.12404C5.47723 0.825169 5.98192 0.664673 6.49935 0.664673C7.01678 0.664673 7.52147 0.825169 7.94385 1.12404C8.36623 1.42291 8.68551 1.84544 8.85768 2.33338H17.3327V4.00005H8.85768C8.68551 4.48799 8.36623 4.91052 7.94385 5.20939C7.52147 5.50826 7.01678 5.66876 6.49935 5.66876C5.98192 5.66876 5.47723 5.50826 5.05485 5.20939C4.63247 4.91052 4.31318 4.48799 4.14102 4.00005H0.666016V2.33338H4.14102ZM6.49935 4.00005C6.72036 4.00005 6.93232 3.91225 7.0886 3.75597C7.24488 3.59969 7.33268 3.38773 7.33268 3.16671C7.33268 2.9457 7.24488 2.73374 7.0886 2.57746C6.93232 2.42118 6.72036 2.33338 6.49935 2.33338C6.27834 2.33338 6.06637 2.42118 5.91009 2.57746C5.75381 2.73374 5.66602 2.9457 5.66602 3.16671C5.66602 3.38773 5.75381 3.59969 5.91009 3.75597C6.06637 3.91225 6.27834 4.00005 6.49935 4.00005ZM11.4993 9.83338C11.7204 9.83338 11.9323 9.74558 12.0886 9.5893C12.2449 9.43302 12.3327 9.22106 12.3327 9.00005C12.3327 8.77903 12.2449 8.56707 12.0886 8.41079C11.9323 8.25451 11.7204 8.16672 11.4993 8.16672C11.2783 8.16672 11.0664 8.25451 10.9101 8.41079C10.7538 8.56707 10.666 8.77903 10.666 9.00005C10.666 9.22106 10.7538 9.43302 10.9101 9.5893C11.0664 9.74558 11.2783 9.83338 11.4993 9.83338ZM6.49935 15.6667C6.72036 15.6667 6.93232 15.5789 7.0886 15.4226C7.24488 15.2664 7.33268 15.0544 7.33268 14.8334C7.33268 14.6124 7.24488 14.4004 7.0886 14.2441C6.93232 14.0878 6.72036 14 6.49935 14C6.27834 14 6.06637 14.0878 5.91009 14.2441C5.75381 14.4004 5.66602 14.6124 5.66602 14.8334C5.66602 15.0544 5.75381 15.2664 5.91009 15.4226C6.06637 15.5789 6.27834 15.6667 6.49935 15.6667Z" fill="#3181F6"/>
</svg>
