<svg width="20" height="17" viewBox="0 0 20 17" fill="none" xmlns="http://www.w3.org/2000/svg">
<path d="M15.833 16.4996H4.16634C3.94533 16.4996 3.73337 16.4118 3.57709 16.2555C3.4208 16.0992 3.33301 15.8873 3.33301 15.6663V8.16627H0.833008L9.43884 0.342941C9.59227 0.203339 9.79224 0.125977 9.99967 0.125977C10.2071 0.125977 10.4071 0.203339 10.5605 0.342941L19.1663 8.16627H16.6663V15.6663C16.6663 15.8873 16.5785 16.0992 16.4223 16.2555C16.266 16.4118 16.054 16.4996 15.833 16.4996ZM10.833 14.8329H14.9997V6.63044L9.99967 2.08544L4.99967 6.63044V14.8329H9.16634V9.83294H10.833V14.8329Z" fill="#3181F6"/>
</svg>
