<svg width="20" height="20" viewBox="0 0 20 20" fill="none" xmlns="http://www.w3.org/2000/svg">
<path d="M15.833 17.5001H4.16634C3.94533 17.5001 3.73337 17.4123 3.57709 17.256C3.42081 17.0997 3.33301 16.8878 3.33301 16.6668V9.16676H0.833008L9.43884 1.34343C9.59227 1.20383 9.79224 1.12646 9.99967 1.12646C10.2071 1.12646 10.4071 1.20383 10.5605 1.34343L19.1663 9.16676H16.6663V16.6668C16.6663 16.8878 16.5785 17.0997 16.4223 17.256C16.266 17.4123 16.054 17.5001 15.833 17.5001ZM10.833 15.8334H14.9997V7.63093L9.99967 3.08593L4.99967 7.63093V15.8334H9.16634V10.8334H10.833V15.8334Z" fill="#3181F6"/>
</svg>
