<svg width="22" height="24" viewBox="0 0 22 24" fill="none" xmlns="http://www.w3.org/2000/svg">
<path fill-rule="evenodd" clip-rule="evenodd" d="M21.5 5.4C21.5 9.6 16.25 14.4 16.25 14.4C16.25 14.4 11 9.6 11 5.4C11 2.41766 13.3505 0 16.25 0C19.1495 0 21.5 2.41766 21.5 5.4ZM19.5909 5.4C19.5909 6.81653 18.641 8.62308 17.3589 10.3082C16.9781 10.8087 16.5955 11.2632 16.25 11.6508C15.9045 11.2632 15.5219 10.8087 15.1411 10.3082C13.859 8.62308 12.9091 6.81653 12.9091 5.4C12.9091 3.43714 14.4451 1.92 16.25 1.92C18.0549 1.92 19.5909 3.43714 19.5909 5.4Z" fill="#3181F6"/>
<path fill-rule="evenodd" clip-rule="evenodd" d="M11.9545 14.7643V21.3734L8.13637 19.4534V7.42656L9.09091 7.90656V5.76L7.18182 4.8L0.5 7.68V23.2714C0.499931 23.3508 0.519482 23.4291 0.556899 23.4991C0.594316 23.5691 0.648428 23.6286 0.71438 23.6724C0.780332 23.7162 0.856058 23.7428 0.934764 23.7499C1.01347 23.757 1.09269 23.7443 1.16532 23.713L7.18182 21.12L12.9091 24L19.5909 21.12V15.2692L17.6818 17.4196V19.8538L13.8636 21.4992V16.9146L11.9545 14.7643ZM6.22727 19.4429V7.3008L2.40909 8.94624V21.0883L6.22727 19.4429Z" fill="#3181F6"/>
<path d="M17.6818 5.28C17.6818 6.07529 17.0408 6.72 16.25 6.72C15.4592 6.72 14.8182 6.07529 14.8182 5.28C14.8182 4.48471 15.4592 3.84 16.25 3.84C17.0408 3.84 17.6818 4.48471 17.6818 5.28Z" fill="#3181F6"/>
</svg>
