<svg width="20" height="20" viewBox="0 0 20 20" fill="none" xmlns="http://www.w3.org/2000/svg">
<path d="M10 19.9999C4.477 19.9999 0 15.5229 0 9.99994C0 4.47694 4.477 -6.10352e-05 10 -6.10352e-05C15.523 -6.10352e-05 20 4.47694 20 9.99994C20 15.5229 15.523 19.9999 10 19.9999ZM10 17.9999C12.1217 17.9999 14.1566 17.1571 15.6569 15.6568C17.1571 14.1565 18 12.1217 18 9.99994C18 7.87821 17.1571 5.84338 15.6569 4.34309C14.1566 2.84279 12.1217 1.99994 10 1.99994C7.87827 1.99994 5.84344 2.84279 4.34315 4.34309C2.84286 5.84338 2 7.87821 2 9.99994C2 12.1217 2.84286 14.1565 4.34315 15.6568C5.84344 17.1571 7.87827 17.9999 10 17.9999ZM9 12.9999H11V14.9999H9V12.9999ZM9 4.99994H11V10.9999H9V4.99994Z" fill="#42495A"/>
</svg>
