<svg width="18" height="16" viewBox="0 0 18 16" fill="none" xmlns="http://www.w3.org/2000/svg">
<path d="M0.666017 5.49501C0.665577 4.83851 0.794643 4.18837 1.04582 3.58183C1.297 2.97528 1.66536 2.42424 2.12981 1.96026C2.59425 1.49628 3.14566 1.12847 3.75246 0.877898C4.35926 0.627326 5.00952 0.498911 5.66602 0.500007H12.3327C15.0935 0.500007 17.3327 2.74584 17.3327 5.49501V15.5H5.66602C2.90518 15.5 0.666017 13.2542 0.666017 10.505V5.49501ZM15.666 13.8333V5.49501C15.6638 4.61209 15.3118 3.76604 14.687 3.14219C14.0622 2.51834 13.2156 2.16755 12.3327 2.16667H5.66602C5.22839 2.16558 4.79485 2.25088 4.39026 2.4177C3.98568 2.58451 3.618 2.82955 3.30832 3.13877C2.99864 3.44799 2.75304 3.8153 2.58562 4.21963C2.4182 4.62397 2.33224 5.05738 2.33268 5.49501V10.505C2.33489 11.3879 2.68694 12.234 3.31173 12.8578C3.93652 13.4817 4.7831 13.8325 5.66602 13.8333H15.666ZM10.666 7.16667H12.3327V8.83334H10.666V7.16667ZM5.66602 7.16667H7.33268V8.83334H5.66602V7.16667Z" fill="#3181F6"/>
</svg>
