<svg width="20" height="20" viewBox="0 0 20 20" fill="none" xmlns="http://www.w3.org/2000/svg">
<path d="M1.66675 18.3334C1.66675 16.5653 2.36913 14.8696 3.61937 13.6193C4.86961 12.3691 6.5653 11.6667 8.33341 11.6667C10.1015 11.6667 11.7972 12.3691 13.0475 13.6193C14.2977 14.8696 15.0001 16.5653 15.0001 18.3334H13.3334C13.3334 17.0073 12.8066 15.7355 11.8689 14.7978C10.9313 13.8602 9.6595 13.3334 8.33341 13.3334C7.00733 13.3334 5.73556 13.8602 4.79788 14.7978C3.8602 15.7355 3.33341 17.0073 3.33341 18.3334H1.66675ZM8.33341 10.8334C5.57091 10.8334 3.33341 8.59587 3.33341 5.83337C3.33341 3.07087 5.57091 0.833374 8.33341 0.833374C11.0959 0.833374 13.3334 3.07087 13.3334 5.83337C13.3334 8.59587 11.0959 10.8334 8.33341 10.8334ZM8.33341 9.16671C10.1751 9.16671 11.6667 7.67504 11.6667 5.83337C11.6667 3.99171 10.1751 2.50004 8.33341 2.50004C6.49175 2.50004 5.00008 3.99171 5.00008 5.83337C5.00008 7.67504 6.49175 9.16671 8.33341 9.16671ZM15.2367 12.2525C16.4079 12.78 17.4017 13.6344 18.0989 14.7131C18.7961 15.7919 19.1669 17.049 19.1667 18.3334H17.5001C17.5003 17.37 17.2222 16.4271 16.6993 15.618C16.1764 14.8089 15.431 14.1681 14.5526 13.7725L15.2359 12.2525H15.2367ZM14.6634 2.84421C15.503 3.19029 16.2209 3.77799 16.7259 4.53273C17.231 5.28748 17.5004 6.17524 17.5001 7.08337C17.5004 8.22698 17.0732 9.3294 16.3022 10.1741C15.5312 11.0187 14.4723 11.5446 13.3334 11.6484V9.97087C13.9509 9.88244 14.5237 9.59839 14.9678 9.16042C15.412 8.72246 15.704 8.15364 15.801 7.53749C15.8981 6.92133 15.7951 6.29029 15.5071 5.737C15.2191 5.18372 14.7613 4.73733 14.2009 4.46337L14.6634 2.84421Z" fill="#3181F6"/>
</svg>
