<svg width="20" height="16" viewBox="0 0 20 16" fill="none" xmlns="http://www.w3.org/2000/svg">
<path d="M18.1444 7.07836V2.62453C18.1444 1.64262 17.3455 0.84375 16.3636 0.84375H3.63641C2.65449 0.84375 1.85563 1.64262 1.85563 2.62453V7.07836C0.787031 7.37418 0 8.35465 0 9.51605V12.9002C0 13.228 0.265859 13.4939 0.59375 13.4939H1.85563V14.562C1.85563 14.8899 2.12148 15.1558 2.44937 15.1558C2.77727 15.1558 3.04312 14.8899 3.04312 14.562V13.4939H16.9569V14.562C16.9569 14.8899 17.2227 15.1558 17.5506 15.1558C17.8785 15.1558 18.1444 14.8899 18.1444 14.562V13.4939H19.4062C19.7341 13.4939 20 13.228 20 12.9002V9.51605C20 8.35465 19.2129 7.37418 18.1444 7.07836ZM3.04312 2.62453C3.04312 2.29742 3.3093 2.03125 3.63641 2.03125H16.3636C16.6907 2.03125 16.9569 2.29742 16.9569 2.62453V6.98648H15.5657V5.79465C15.5657 4.75828 14.7226 3.91516 13.6862 3.91516H11.2858C10.7887 3.91516 10.3365 4.10941 10 4.42562C9.66359 4.10945 9.21133 3.91516 8.7143 3.91516H6.31387C5.2775 3.91516 4.43437 4.75832 4.43437 5.79465V6.98648H3.04312V2.62453ZM14.3782 5.79465V6.98648H10.5938V5.79465C10.5938 5.41305 10.9042 5.10266 11.2857 5.10266H13.6862C14.0678 5.10266 14.3782 5.41309 14.3782 5.79465ZM9.40621 5.79465V6.98648H5.62176V5.79465C5.62176 5.41305 5.93223 5.10266 6.31375 5.10266H8.71418C9.09578 5.10266 9.40621 5.41309 9.40621 5.79465ZM18.8125 12.3064H1.1875V9.51605C1.1875 8.77605 1.78953 8.17398 2.52957 8.17398H17.4704C18.2104 8.17398 18.8125 8.77602 18.8125 9.51605V12.3064Z" fill="#919FB3"/>
</svg>
