<svg width="18" height="20" viewBox="0 0 18 20" fill="none" xmlns="http://www.w3.org/2000/svg">
<path fill-rule="evenodd" clip-rule="evenodd" d="M17.75 4.5C17.75 8 13.375 12 13.375 12C13.375 12 9 8 9 4.5C9 2.01472 10.9588 0 13.375 0C15.7912 0 17.75 2.01472 17.75 4.5ZM16.1591 4.5C16.1591 5.68044 15.3675 7.1859 14.2991 8.59017C13.9817 9.00722 13.6629 9.38596 13.375 9.70903C13.0871 9.38596 12.7683 9.00722 12.4509 8.59017C11.3825 7.1859 10.5909 5.68044 10.5909 4.5C10.5909 2.86429 11.8709 1.6 13.375 1.6C14.8791 1.6 16.1591 2.86429 16.1591 4.5Z" fill="#919FB3"/>
<path fill-rule="evenodd" clip-rule="evenodd" d="M9.79546 12.3035V17.8112L6.61364 16.2112V6.1888L7.40909 6.5888V4.8L5.81818 4L0.25 6.4V19.3928C0.249943 19.459 0.266235 19.5242 0.297416 19.5826C0.328597 19.6409 0.37369 19.6905 0.42865 19.727C0.48361 19.7635 0.546715 19.7857 0.612303 19.7916C0.677892 19.7975 0.74391 19.7869 0.804433 19.7608L5.81818 17.6L10.5909 20L16.1591 17.6V12.7243L14.5682 14.5163V16.5448L11.3864 17.916V14.0955L9.79546 12.3035ZM5.02273 16.2024V6.084L1.84091 7.4552V17.5736L5.02273 16.2024Z" fill="#919FB3"/>
<path d="M14.5682 4.4C14.5682 5.06274 14.034 5.6 13.375 5.6C12.716 5.6 12.1818 5.06274 12.1818 4.4C12.1818 3.73726 12.716 3.2 13.375 3.2C14.034 3.2 14.5682 3.73726 14.5682 4.4Z" fill="#919FB3"/>
</svg>
