<svg width="20" height="20" viewBox="0 0 20 20" fill="none" xmlns="http://www.w3.org/2000/svg">
<path d="M10.0003 18.3337C5.39783 18.3337 1.66699 14.6028 1.66699 10.0003C1.66699 5.39783 5.39783 1.66699 10.0003 1.66699C14.6028 1.66699 18.3337 5.39783 18.3337 10.0003C18.3337 14.6028 14.6028 18.3337 10.0003 18.3337ZM8.09199 16.3895C7.26984 14.6456 6.79355 12.7588 6.68949 10.8337H3.38533C3.54748 12.1161 4.07859 13.3238 4.91413 14.3101C5.74967 15.2964 6.85367 16.0188 8.09199 16.3895V16.3895ZM8.35866 10.8337C8.48449 12.8662 9.06533 14.7753 10.0003 16.4603C10.9606 14.7308 11.5215 12.8082 11.642 10.8337H8.35866V10.8337ZM16.6153 10.8337H13.3112C13.2071 12.7588 12.7308 14.6456 11.9087 16.3895C13.147 16.0188 14.251 15.2964 15.0865 14.3101C15.9221 13.3238 16.4532 12.1161 16.6153 10.8337V10.8337ZM3.38533 9.16699H6.68949C6.79355 7.24181 7.26984 5.35506 8.09199 3.61116C6.85367 3.98189 5.74967 4.70429 4.91413 5.69057C4.07859 6.67686 3.54748 7.88458 3.38533 9.16699V9.16699ZM8.35949 9.16699H11.6412C11.521 7.19249 10.9603 5.26994 10.0003 3.54033C9.04006 5.26987 8.47912 7.19243 8.35866 9.16699H8.35949ZM11.9087 3.61116C12.7308 5.35506 13.2071 7.24181 13.3112 9.16699H16.6153C16.4532 7.88458 15.9221 6.67686 15.0865 5.69057C14.251 4.70429 13.147 3.98189 11.9087 3.61116V3.61116Z" fill="#3181F6"/>
</svg>
