<svg width="10" height="18" viewBox="0 0 10 18" fill="none" xmlns="http://www.w3.org/2000/svg">
<path d="M4.98842 9.28425C2.63425 9.28425 0.677582 7.32925 0.677582 5.01591C0.677582 2.62258 2.63425 0.666748 4.98925 0.666748C7.42425 0.666748 9.30008 2.62175 9.30008 5.01591C9.29589 6.15179 8.84087 7.23953 8.03503 8.04006C7.22918 8.84059 6.13846 9.2884 5.00258 9.28508L4.98842 9.28425ZM4.98842 3.18092C3.99175 3.18092 3.23342 4.01841 3.23342 5.01675C3.23342 6.01342 3.99175 6.77175 4.98925 6.77175C6.02675 6.77175 6.74508 6.01342 6.74508 5.01675C6.74592 4.01758 6.02675 3.18092 4.98842 3.18092ZM6.70508 12.8359L9.14091 15.1901C9.62008 15.7076 9.62008 16.4659 9.14091 16.9451C8.62258 17.4626 7.82342 17.4626 7.42425 16.9451L4.98925 14.5509L2.63425 16.9451C2.39508 17.1842 2.07508 17.3034 1.71508 17.3034C1.43591 17.3034 1.11675 17.1834 0.836748 16.9451C0.357582 16.4659 0.357582 15.7076 0.836748 15.1892L3.31175 12.8351C2.41794 12.5704 1.56053 12.1956 0.759248 11.7192C0.160081 11.4001 0.0409151 10.6026 0.360082 10.0034C0.759248 9.40508 1.47758 9.24592 2.11675 9.64508C2.98225 10.1733 3.97657 10.4527 4.9905 10.4527C6.00443 10.4527 6.99875 10.1733 7.86425 9.64508C8.50342 9.24592 9.26092 9.40508 9.62008 10.0034C9.98008 10.6026 9.81925 11.3992 9.26008 11.7192C8.50258 12.1984 7.62425 12.5576 6.70592 12.8368L6.70508 12.8359Z" fill="white"/>
</svg>
