<svg width="20" height="12" viewBox="0 0 20 12" fill="none" xmlns="http://www.w3.org/2000/svg">
<path fill-rule="evenodd" clip-rule="evenodd" d="M19.5417 0.956748C19.68 0.501748 19.5417 0.166748 18.8792 0.166748H16.6917C16.135 0.166748 15.8783 0.455915 15.7392 0.775081C15.7392 0.775081 14.6267 3.43842 13.0508 5.16842C12.5408 5.67008 12.3092 5.82925 12.0308 5.82925C11.8917 5.82925 11.6825 5.67008 11.6825 5.21425V0.956748C11.6825 0.410081 11.5292 0.166748 11.0658 0.166748H7.62583C7.27833 0.166748 7.06917 0.420081 7.06917 0.660915C7.06917 1.17841 7.8575 1.29841 7.93833 2.75508V5.92008C7.93833 6.61425 7.81083 6.74008 7.5325 6.74008C6.79083 6.74008 4.98667 4.06425 3.91583 1.00258C3.70833 0.406748 3.49833 0.166748 2.93917 0.166748H0.75C0.125 0.166748 0 0.455915 0 0.775081C0 1.34341 0.741667 4.16675 3.45417 7.90092C5.2625 10.4509 7.80833 11.8334 10.1275 11.8334C11.5183 11.8334 11.69 11.5267 11.69 10.9976V9.07008C11.69 8.45592 11.8217 8.33342 12.2625 8.33342C12.5875 8.33342 13.1433 8.49341 14.4417 9.72258C15.925 11.1801 16.1692 11.8334 17.0042 11.8334H19.1917C19.8167 11.8334 20.13 11.5267 19.95 10.9201C19.7517 10.3167 19.0433 9.44092 18.1042 8.40175C17.5942 7.81008 16.8292 7.17258 16.5967 6.85342C16.2725 6.44425 16.365 6.26175 16.5967 5.89758C16.5967 5.89758 19.2633 2.20925 19.5408 0.956748H19.5417Z" fill="white"/>
</svg>
