<svg width="16" height="16" viewBox="0 0 16 16" fill="none" xmlns="http://www.w3.org/2000/svg">
<path d="M8.00009 10.6034C6.5665 10.6034 5.39658 9.4335 5.39658 7.99991C5.39658 6.56631 6.5665 5.39639 8.00009 5.39639C9.43369 5.39639 10.6036 6.56631 10.6036 7.99991C10.6036 9.4335 9.43369 10.6034 8.00009 10.6034ZM15.8087 7.99991C15.8087 9.07803 15.8185 10.1464 15.7579 11.2226C15.6974 12.4726 15.4122 13.5819 14.4981 14.496C13.5821 15.412 12.4747 15.6952 11.2247 15.7558C10.1466 15.8163 9.07822 15.8065 8.00205 15.8065C6.92392 15.8065 5.85556 15.8163 4.77939 15.7558C3.52939 15.6952 2.42001 15.4101 1.50595 14.496C0.589936 13.58 0.306733 12.4726 0.246186 11.2226C0.18564 10.1444 0.195405 9.07608 0.195405 7.99991C0.195405 6.92374 0.18564 5.85342 0.246186 4.77725C0.306733 3.52725 0.59189 2.41788 1.50595 1.50381C2.42197 0.587798 3.52939 0.304595 4.77939 0.244049C5.85752 0.183502 6.92587 0.193267 8.00205 0.193267C9.08017 0.193267 10.1485 0.183502 11.2247 0.244049C12.4747 0.304595 13.5841 0.589752 14.4981 1.50381C15.4142 2.41983 15.6974 3.52725 15.7579 4.77725C15.8204 5.85342 15.8087 6.92178 15.8087 7.99991ZM8.00009 3.99405C5.7833 3.99405 3.99423 5.78311 3.99423 7.99991C3.99423 10.2167 5.7833 12.0058 8.00009 12.0058C10.2169 12.0058 12.006 10.2167 12.006 7.99991C12.006 5.78311 10.2169 3.99405 8.00009 3.99405ZM12.17 11.2343C11.6524 11.2343 11.2345 11.6523 11.2345 12.1698C11.2345 12.6874 11.6524 13.1054 12.17 13.1054C12.6876 13.1054 13.1056 12.6874 13.1056 12.1698C13.1057 12.0469 13.0816 11.9252 13.0347 11.8116C12.9877 11.6981 12.9188 11.5949 12.8319 11.508C12.745 11.421 12.6418 11.3521 12.5282 11.3052C12.4146 11.2582 12.2929 11.2341 12.17 11.2343Z" fill="white"/>
</svg>
