<svg width="19" height="16" viewBox="0 0 19 16" fill="none" xmlns="http://www.w3.org/2000/svg">
<path d="M18.3249 3.9666C18.2483 5.65576 17.0583 7.9666 14.7583 10.9024C12.3808 13.9674 10.3666 15.4999 8.71825 15.4999C7.69742 15.4999 6.83492 14.5649 6.12992 12.7008C5.65992 10.9883 5.19075 9.27576 4.71575 7.56743C4.19325 5.70326 3.63242 4.76826 3.02825 4.76826C2.89909 4.76826 2.43909 5.04326 1.65742 5.58493L0.833252 4.53076C1.69575 3.77576 2.54992 3.0266 3.38825 2.27243C4.53825 1.28493 5.40659 0.768264 5.98159 0.715764C7.34242 0.588264 8.18159 1.50826 8.49825 3.4866C8.83825 5.6166 9.07325 6.94493 9.20742 7.4616C9.60075 9.2316 10.0324 10.1141 10.5016 10.1141C10.8658 10.1141 11.4174 9.54076 12.1508 8.39243C12.8841 7.2441 13.2766 6.3716 13.3299 5.77326C13.4349 4.7816 13.0424 4.28826 12.1508 4.28826C11.7341 4.28826 11.3024 4.38326 10.8566 4.57326C11.7149 1.7791 13.3583 0.421597 15.7841 0.502431C17.5816 0.549931 18.4299 1.70743 18.3249 3.96576V3.9666Z" fill="white"/>
</svg>
