<svg width="9" height="9" viewBox="0 0 9 9" fill="none" xmlns="http://www.w3.org/2000/svg">
<path d="M8.70911 3.16916L6.01109 2.75855L4.805 0.198076C4.77206 0.127972 4.71786 0.071221 4.65092 0.0367253C4.48302 -0.0500703 4.27899 0.0222594 4.19505 0.198076L2.98896 2.75855L0.290932 3.16916C0.216548 3.18028 0.148539 3.21701 0.0964705 3.27264C0.0335219 3.3404 -0.00116561 3.43155 2.99088e-05 3.52607C0.00122543 3.62059 0.0382062 3.71074 0.102846 3.77673L2.0549 5.76969L1.59372 8.58387C1.58291 8.64933 1.58982 8.71666 1.61369 8.77821C1.63756 8.83977 1.67741 8.89309 1.72875 8.93213C1.78008 8.97118 1.84083 8.99437 1.90412 8.9991C1.9674 9.00383 2.03068 8.98989 2.08678 8.95887L4.50002 7.63023L6.91326 8.95887C6.97914 8.99559 7.05565 9.00783 7.12898 8.99448C7.31387 8.96109 7.4382 8.77749 7.40632 8.58387L6.94514 5.76969L8.8972 3.77673C8.95033 3.7222 8.9854 3.65098 8.99602 3.57309C9.02471 3.37836 8.89507 3.19809 8.70911 3.16916Z" fill="#919FB3"/>
</svg>
