<svg width="1038" height="371" viewBox="0 0 1038 371" fill="none" xmlns="http://www.w3.org/2000/svg">
<path fill-rule="evenodd" clip-rule="evenodd" d="M266.966 288.002H331.694V230.582H266.966V156.98H203.282V230.582H83.7441L253.394 5.60001H180.836L0.746109 241.022V288.002H201.194V371H236.501L266.966 337.446V288.002ZM638.569 303.435C641.122 299.005 643.528 294.383 645.787 289.568C659.011 261.032 665.623 227.276 665.623 188.3C665.623 149.324 659.011 115.742 645.787 87.554C632.563 59.018 614.293 37.442 590.977 22.826C568.009 7.86201 541.909 0.380011 512.677 0.380011C483.445 0.380011 457.345 7.86201 434.377 22.826C411.409 37.442 393.313 59.018 380.089 87.554C366.865 115.742 360.253 149.324 360.253 188.3C360.253 227.276 366.865 261.032 380.089 289.568C383.433 296.695 387.088 303.4 391.055 309.682L443.054 270.765C433.441 250.095 428.635 222.607 428.635 188.3C428.635 145.496 436.117 113.306 451.081 91.73C466.393 70.154 486.925 59.366 512.677 59.366C538.777 59.366 559.309 70.154 574.273 91.73C589.585 113.306 597.241 145.496 597.241 188.3C597.241 231.104 589.585 263.294 574.273 284.87C567.033 295.309 558.489 303.223 548.642 308.612L550.498 316.5L638.569 303.435ZM972.482 288.002H1037.21V230.582H972.482V156.98H908.798V230.582H789.26L958.91 5.60001H886.352L706.262 241.022V288.002H906.71V300.138L945.67 278.314L972.482 291.737V288.002Z" fill="white"/>
</svg>
