<svg width="24" height="24" viewBox="0 0 24 24" fill="none" xmlns="http://www.w3.org/2000/svg">
<path d="M20.8134 2.339C20.2181 1.79057 17.8087 0.0421289 12.4368 0.0186914C12.4368 0.0186914 6.104 -0.360996 3.01963 2.47025C1.304 4.18588 0.699315 6.70307 0.63369 9.82026C0.568065 12.9374 0.488377 18.7781 6.11806 20.3624H6.12275L6.11806 22.7812C6.11806 22.7812 6.08056 23.7609 6.72744 23.9578C7.50556 24.2015 7.96494 23.4562 8.71025 22.6546C9.11806 22.214 9.68056 21.5671 10.1071 21.0749C13.9603 21.3984 16.9181 20.6578 17.2556 20.5499C18.0337 20.2968 22.4353 19.7343 23.1478 13.8937C23.8884 7.86557 22.7915 4.05932 20.8134 2.339ZM21.4649 13.4531C20.8603 18.3281 17.2931 18.6374 16.6368 18.8484C16.3556 18.9374 13.754 19.5843 10.4868 19.3734C10.4868 19.3734 8.04931 22.3124 7.28994 23.0765C7.0415 23.3249 6.76963 23.3015 6.77431 22.8093C6.77431 22.4859 6.79306 18.7921 6.79306 18.7921C6.78838 18.7921 6.78838 18.7921 6.79306 18.7921C2.02119 17.4703 2.30244 12.4968 2.354 9.89526C2.40556 7.29369 2.89775 5.16088 4.35088 3.7265C6.96181 1.35932 12.3384 1.71088 12.3384 1.71088C16.8806 1.72963 19.0556 3.09838 19.5618 3.55775C21.2353 4.99213 22.0884 8.42338 21.4649 13.4531ZM14.9493 9.66557C14.9681 10.0687 14.3634 10.0968 14.3446 9.69369C14.2931 8.66244 13.8103 8.16088 12.8165 8.10463C12.4134 8.08119 12.4509 7.47651 12.8493 7.49994C14.1571 7.57026 14.8837 8.32026 14.9493 9.66557ZM15.9009 10.1953C15.9478 8.20776 14.7056 6.6515 12.3478 6.47807C11.9493 6.44994 11.9915 5.84525 12.3899 5.87338C15.1087 6.07025 16.5571 7.94057 16.5056 10.2093C16.5009 10.6124 15.8915 10.5937 15.9009 10.1953ZM18.104 10.8234C18.1087 11.2265 17.4993 11.2312 17.4993 10.8281C17.4712 7.00776 14.9259 4.9265 11.8368 4.90307C11.4384 4.89838 11.4384 4.29838 11.8368 4.29838C15.2915 4.32182 18.0712 6.70775 18.104 10.8234ZM17.5743 15.4218V15.4312C17.0681 16.3218 16.1212 17.3062 15.1462 16.9921L15.1368 16.9781C14.1478 16.7015 11.8181 15.5015 10.3462 14.3296C9.58681 13.7296 8.89306 13.0218 8.35869 12.3421C7.87588 11.7374 7.38838 11.0203 6.91494 10.1578C5.9165 8.35307 5.69619 7.54682 5.69619 7.54682C5.38213 6.57182 6.36181 5.62494 7.25713 5.11869H7.2665C7.69775 4.89369 8.11025 4.96869 8.38681 5.3015C8.38681 5.3015 8.96806 5.99525 9.2165 6.33744C9.45088 6.65619 9.76494 7.16713 9.929 7.45307C10.2149 7.96401 10.0368 8.48432 9.75556 8.69994L9.19306 9.14994C8.90713 9.37963 8.94463 9.80619 8.94463 9.80619C8.94463 9.80619 9.779 12.9609 12.8962 13.7578C12.8962 13.7578 13.3228 13.7953 13.5524 13.5093L14.0024 12.9468C14.2181 12.6656 14.7384 12.4874 15.2493 12.7734C15.9384 13.1624 16.8149 13.7671 17.3962 14.3156C17.7243 14.5828 17.7993 14.9906 17.5743 15.4218Z" fill="white"/>
</svg>
