<svg width="22" height="22" viewBox="0 0 22 22" fill="none" xmlns="http://www.w3.org/2000/svg">
<path fill-rule="evenodd" clip-rule="evenodd" d="M18.7945 3.19753C17.7798 2.18095 16.5724 1.37487 15.2424 0.826004C13.9124 0.277137 12.4862 -0.00360703 11.0463 3.49856e-05C5.00886 3.49856e-05 0.0939544 4.8904 0.091514 10.9017C0.091514 12.8228 0.595451 14.6978 1.5533 16.3519L0 22L5.80687 20.4832C7.41311 21.3535 9.21265 21.8098 11.0415 21.8106H11.0463C17.0826 21.8106 21.9975 16.9202 22 10.9089C22.0041 9.47654 21.723 8.05753 21.1728 6.73392C20.6226 5.41032 19.8143 4.20836 18.7945 3.19753ZM11.0463 19.9707H11.0427C9.41193 19.9709 7.81118 19.5342 6.40842 18.7066L6.07653 18.5098L2.63072 19.4097L3.54952 16.0665L3.33355 15.724C2.42181 14.2794 1.93916 12.6076 1.94132 10.9017C1.94376 5.90563 6.02772 1.84106 11.05 1.84106C12.2461 1.83841 13.4308 2.07189 14.5357 2.52798C15.6405 2.98407 16.6434 3.65371 17.4865 4.49815C18.3341 5.33856 19.0059 6.33783 19.4631 7.4382C19.9203 8.53856 20.1538 9.7182 20.1502 10.9089C20.1477 15.905 16.0638 19.9707 11.0463 19.9707ZM16.0406 13.1835C15.766 13.0463 14.4214 12.3881 14.17 12.297C13.9199 12.2059 13.7381 12.161 13.555 12.433C13.372 12.705 12.8473 13.3183 12.6875 13.5005C12.5277 13.6826 12.3678 13.7045 12.0945 13.5685C11.8212 13.4324 10.939 13.1446 9.89327 12.2168C9.0794 11.4943 8.53032 10.6029 8.37048 10.3297C8.21063 10.0564 8.35339 9.90949 8.49127 9.77348C8.61451 9.65204 8.7646 9.45531 8.90126 9.29622C9.03792 9.13714 9.08307 9.0242 9.17458 8.84204C9.26609 8.65988 9.22095 8.50079 9.1514 8.36478C9.08307 8.22756 8.5352 6.88686 8.30703 6.3416C8.08617 5.81334 7.86044 5.88377 7.69205 5.87649C7.51766 5.86939 7.34313 5.86615 7.16859 5.86677C7.0298 5.87029 6.89324 5.90231 6.76747 5.96083C6.6417 6.01934 6.52943 6.10308 6.4377 6.2068C6.18634 6.48004 5.47986 7.13824 5.47986 8.47894C5.47986 9.81963 6.46089 11.1154 6.59755 11.2975C6.73421 11.4797 8.52788 14.2303 11.2733 15.4107C11.9273 15.6912 12.4374 15.8588 12.8339 15.9851C13.4892 16.1928 14.0858 16.1624 14.558 16.0932C15.0839 16.0155 16.1772 15.435 16.4054 14.7986C16.6336 14.1623 16.6336 13.617 16.5652 13.5029C16.4969 13.3887 16.3127 13.3195 16.0406 13.1835Z" fill="white"/>
</svg>
